<?xml version="1.0" encoding="UTF-8"?><svg id="Layer_1" xmlns="http://www.w3.org/2000/svg" xmlns:xlink="http://www.w3.org/1999/xlink" viewBox="0 0 2918.39 2916.14"><defs><style>.cls-1{fill:none;}.cls-2{fill:#231f20;}.cls-3{fill:#4783b5;}.cls-4,.cls-5{fill:#fff;}.cls-5{stroke:#231f20;stroke-miterlimit:10;}.cls-6{fill:#76c268;}.cls-7{clip-path:url(#clippath);}</style><clipPath id="clippath"><ellipse class="cls-1" cx="999.67" cy="2034.53" rx="719.07" ry="706.76"/></clipPath></defs><g class="cls-7"><g id="Earth"><path id="ocean" class="cls-3" d="M1681.52,2299.25c-147.63,365.63-570.28,544.94-944.02,400.51-373.74-144.43-557.03-557.91-409.4-923.54,147.63-365.63,570.28-544.94,944.02-400.51,373.74,144.43,557.03,557.91,409.4,923.54Z"/><path id="Anarctica" class="cls-4" d="M517.47,2562.74c5-8.6,17.45-9.07,27.42-7.33,9.97,1.75,21.13,4.4,29.54-1.13,3.25-2.14,5.79-5.38,9.44-6.78,5.83-2.23,12.21.91,18.42,1.75,11.84,1.61,23.19-5.32,35.13-5.96,13.75-.74,26.37,6.8,37.96,14.06,25.45,15.94,50.89,31.88,76.34,47.82,11.81,7.4,25.78,15.11,39.09,10.8,4.81-1.56,9.1-4.62,14.09-5.46,5.19-.88,10.45.74,15.45,2.33,26.97,8.6,53.94,17.2,80.91,25.8,7.19,2.29,14.5,4.64,20.66,8.93,11.76,8.18,18.09,22.52,30.47,29.77,4.61,2.7,9.82,4.26,14.61,6.65,5.71,2.85,10.73,6.82,15.71,10.77,16.26,12.9,32.52,25.81,48.79,38.71,2.6,2.06,5.49,4.86,4.75,8.05-.8,3.47-5.19,4.63-8.81,5.09-82.55,10.48-167.13-.31-246.38-25.18-79.25-24.88-153.43-63.56-222.58-108.83-20.24-13.25-40.99-28.13-50.85-49.88,3.62-.63,7.24-1.25,9.85.01Z"/><g id="continents"><path class="cls-6" d="M754.56,1376.98c-5.44,9.48-12.13,18.28-19.86,26.11-1.14,1.16-2.33,2.34-2.96,3.82-.86,2.03-.54,4.33-.71,6.52-.56,7.09-6.2,12.75-12,17.05-1.73,1.28-3.71,2.94-3.41,5.04.23,1.58,1.69,2.68,2.46,4.09,3.44,6.29-7.92,12.68-6.01,19.56,1.5,5.42,9.73,6.02,12.69,10.83,1.56,2.55,1.31,5.73,1.95,8.63.8,3.63,3.03,6.95,3.13,10.66.11,3.71-3.72,7.84-7.05,6.06,1.77,4.36,3.53,8.72,8.13,14.57,30.87-4.52,62.02-7.21,93.22-8.04-17.27,22.12-40.73,38.72-63.84,54.99-6.64,4.68-13.29,9.36-19.93,14.04-6.43,4.53-12.86,9.05-19.59,13.14-28.63,17.36-62.74,26.72-86.01,48.44-9.08,6.33-18.15,12.67-27.23,19-3.3,2.3-6.59,4.6-9.78,7.04-12.76,9.75-23.75,21.71-32.32,35.14-2.41,3.79-3.82,10.12.51,11.55-2.71,9.16-5.42,18.31-8.13,27.47-1.68,5.66-3.36,11.64-1.96,17.37.59,2.41,1.71,4.68,2.15,7.11.58,3.25-.08,6.57-.74,9.81-3.37,16.45-6.73,32.91-7.8,49.01-7.09,13.26-14.91,27.27-28.36,34.42-5.05,2.69-10.66,4.25-15.73,6.9-6.26,3.27-11.51,8.07-16.67,12.82-5.41,4.98-10.83,9.95-16.24,14.93-2.08,1.92-4.22,3.9-5.42,6.43-1.46,3.08-1.38,6.62-1.28,10.02.28,9.04.57,18.09.85,27.13.21,6.82.42,13.74-1.28,20.35-1.7,6.62-5.57,13-11.71,16.26-4.58,2.43-10.29,3.11-13.81,6.86-4.53,4.83-3.26,12.78-.05,17.96-9.48,24.78-19.79,49.25-30.9,73.37-6.97,15.12-15.7,31.45-31.6,37.26-10.11,3.69-23.76,3.92-27.88,13.65-3.9-3.92-7.84-7.9-10.6-12.66-5.43-9.37-5.67-20.67-4.73-29.07-11.46-33.96-23.06-68.81-21.72-104.55.28-7.38,1.11-14.74.8-22.12-.27-6.39-1.4-12.71-2.21-19.06-3.87-30.47-.21-61.83,10.58-90.68,3.9-10.42,8.71-20.5,12.92-30.8,2.04-4.99,3.96-10.16,4.08-15.53.07-3.4-.58-6.84.06-10.18.54-2.84,1.98-5.42,3.27-8.01,5.93-11.94,9-25.22,8.88-38.49-.01-1.68.64-4.04,2.61-2.22,3.09-15.34,10.68-29.43,18.64-43.01,35.89-61.26,81.16-117.32,134.22-165.24,32.21-29.08,67.25-55.16,103.52-72.28,6.69-5.92,13.99-11.18,21.9-14.27,13.96-18,36.27-27.51,57.58-36.28,4.71-1.94,9.43-3.88,17.71-4.56,13.66-7.1,27.93-13.07,42.61-17.84,1.44-.47,3.15-.89,5.08-.55Z"/><path class="cls-6" d="M583.66,1846.73c-8.08,6.79-13.25,16.79-14.05,27.18-.7,9.23,1.85,18.88-1.38,27.58-4.77,12.85-21.2,20.97-20.96,34.63.07,4.21,1.84,8.24,2.06,12.44.37,7.1-3.68,14.03-2.63,21.06,1.25,8.4,9.17,14.07,18.93,17.56,9.02-.57,16.98-6.36,22.38-13.44,5.41-7.07,8.72-15.42,12.37-23.49,8.63-19.1,19.41-37.19,29.2-55.75,8.76-16.62,16.73-33.63,23.88-50.97-.72.72.42,1.98,1.42,1.76,1-.22,1.6-1.2,2.06-2.09,6.44-12.49,9.2-26.76,7.85-40.68-.31-3.2-1.33-6.99-4.47-7.97-2.66-.83-5.51.93-7.1,3.18-1.59,2.24-2.35,4.94-3.73,7.31-1.9,3.27-4.9,5.79-7.83,8.23-7.65,6.38-15.33,12.78-23.72,18.22-10.94,7.09-25.49,7.86-34.27,15.24Z"/><path class="cls-6" d="M1416.97,1650.94c-6.84,6.02-13.94,11.76-21.27,17.2"/><path class="cls-6" d="M1158.3,1481.98c2.61-.64,5.21-1.28,7.82-1.91-2.51,8.77-5.62,17.38-7.82,1.91Z"/><path class="cls-6" d="M1659.63,1738.57c-55.7-111.55-140.78-208.96-244.8-280.26-104.02-71.31-226.75-116.36-353.13-129.62-64.94-6.81-125.23-1.07-189.63,9.56-39.62,6.54-79.01,16.06-115.42,32.64,2.7,2.9,4.93,6.22,6.59,9.79l4.34-1.73c-2.21,4.71-4.43,9.43-6.64,14.14-.72,1.53-1.45,3.26-.84,4.83.51,1.31,1.85,2.21,2.25,3.55.75,2.55-2.09,4.57-4.29,6.12-4.82,3.41-8.32,9.89-5.53,15.02.78,1.43,2.01,2.71,2.21,4.32.34,2.69-2.31,4.9-2.73,7.58-.43,2.77,1.55,5.28,2.35,7.98,2.03,6.9-3.79,13.34-8.24,19.07-3.55,4.57-6.46,9.61-8.63,14.93-1.45,3.56-2.39,8.09,2.31,10.35,7.43,1.89,15.22-.41,22.61-2.44,25.46-7.01,51.76-11.1,78.18-12.14,6.46-.26,13.1-.36,19.08-2.78,3.23-1.3,6.15-3.24,9.32-4.68,9.86-4.48,21.22-3.85,32.08-4.48,13.33-.76,26.54-3.56,39-8.26,1.89-.71,3.8-1.48,5.82-1.7,2.48-.27,5.03.29,7.47-.21,3.23-.65,5.76-3.01,8.6-4.67,7.18-4.18,16.15-3.73,24.18-6.01,5.18-1.47,10.65-5.1,10.71-10.37.07-5.46-5.55-9.15-10.63-11.44-5.08-2.29-10.94-4.95-12.33-10.23,2.07-2.06,3.81-4.44,5.13-7.02-11.98-.52-24.04.67-35.68,3.53-6.22,1.53-12.41,3.54-18.82,3.77-6.41.22-13.31-1.68-17.25-6.63,5.74-.61,10.72-5.46,11.36-11.06-5.18.97-10.35,1.93-15.53,2.9,1.26-4.52,2.51-9.03,4-12.67.06-4.21,2.68-8.3,6.54-10.18,3.86-1.88,8.79-1.48,12.27,1.01,1.05.75,2.08,1.72,4.2,1.98,3.31-.45,6.76,1.97,7.36,5.18.16.87.15,1.78.5,2.59,1.1,2.55,4.92,2.67,6.75,4.78,0,0,3.7,2.81,4.64,1.97,4.59,4.99,12.33,5.37,19.2,5.39,2.09,0,4.17.01,6.26.02,4.87.01,9.8.03,14.54,1.1.79.18,1.62.41,2.13,1.02.83.99.43,2.5-.26,3.59s-1.64,2.09-1.88,3.35.74,2.85,5.23,3.72c29.37,10.23,59.81,17.54,90.69,21.77,6.47.89,13.76,2.09,17.44,7.36,1.25,1.79,1.94,3.88,3.06,5.75,1.81,3.02,4.64,5.31,7.49,7.43,8.66,6.45,18.02,12,27.87,16.52-3.93-.63-7.87-1.26-11.8-1.9-2.92-.47-7.07-.06-7.27,2.82-.11,1.61,1.25,2.91,2.52,3.94,3.86,3.13,7.88,6.06,12.04,8.79,4.08,2.68,8.48,5.21,13.36,5.76s10.38-1.39,12.54-5.71l1.8,3.48c-1.16,11.19-4.09,22.2-8.67,32.52-.93,2.11-1.94,4.21-2.43,6.45-.57,2.63-.4,5.35-.23,8.03.29,4.46.67,8.74.08,13.06-1.32,9.66,6.26,15.3,5.58,25.23-.19,2.75-.87,5.45-.94,8.2-.17,6.89,3.48,13.26,5.07,19.98,1.56,6.56,1.13,13.38,1.21,20.11.07,6.73.73,13.71,4.17,19.55,3.43,5.84,10.3,10.21,17.08,8.95,3.77-7.39,13.97-8.11,21.79-11.25,6.66-2.68,12.26-7.77,15.45-14.07.87-1.71,1.58-3.52,2.81-4.99,1.63-1.95,4.02-3.12,5.94-4.8,8.83-7.72,5.67-23.57,17.05-30.76,23.03,1.25,46.28-1.5,68.33-8.1,3.17-.95,6.54-1.99,9.75-1.15,2.74.71,5.02,2.71,7.81,3.18,5.86.98,10.35-4.88,15.87-7.05,6.19-2.43,13.24.03,18.98,3.34,5.74,3.31,11.12,7.56,17.6,9.08,4.1.96,8.48.77,12.41,2.27,3.93,1.49,7.39,5.65,6.54,10.05,3.63,14.3,10.42,27.82,19.77,39.37,2.84,3.5,5.95,6.9,7.77,10.99,1.82,4.1,2.12,9.17-.57,12.79-1.36,1.83-3.38,3.17-4.48,5.16-2.29,4.14.48,9.55,4.64,11.94,4.16,2.39,9.21,2.57,14.03,2.75,4.25.16,8.89.52,12,3.36,1.81,1.65,2.86,3.93,3.76,6.17,9.25,22.85,8.82,49.27-1.16,71.82-4.08,9.22-9.52,20.43-3.27,28.4,2.12,2.7,4.95,5.33,6.83,8.12,2.05,3.02,2.35,7.12,3.13,10.6.59,2.64,1.18,5.33,1.03,8.03-.33,6.07-1.1,11.92-1.15,18.17l-.17,21.33c-.04,5.2-.08,10.44.97,15.53,1.54,7.51,5.35,14.35,9.11,21.07,3.9,6.97,7.8,13.94,11.7,20.91,4.73.06,7.71-5.26,7.73-9.87.02-4.62-1.77-9.13-1.56-13.74.26-5.62,3.43-10.67,4.92-16.11,6.79-24.79-21.68-46.46-22.71-72.1-.18-4.53.51-9.19-.84-13.53-1.35-4.34-5.73-8.32-10.23-7.2,7.46-12.39,14.92-24.77,22.39-37.16.3-.5.64-1.04,1.2-1.25,1.23-.48,2.34.85,2.97,1.98,3.02,5.46,6.03,10.93,9.05,16.39,9,16.31,18,32.62,27,48.93.95,1.72,1.92,3.5,2.08,5.45.22,2.69-1.12,5.24-2.02,7.8-.89,2.56-1.24,5.7.63,7.7s6.34.88,5.96-1.79l3.6,1.6c5.44,1.8,11.75.86,16.39-2.45,1.59,4.52,7.92,6.05,12.36,4.01s7.16-6.5,8.88-10.98c7.42-19.29.68-40.79-6.93-60.01-5.14-12.96-10.68-25.77-16.61-38.4,4.68-6.65,13.81-9.98,21.81-7.95,8,2.04,14.31,9.3,17.34,18.53,7.14,5.56,15.88,9.16,29.78,9.37,5.95,3.57,11.01,8.55,14.6,14.4.73,1.2,1.46,2.47,2.65,3.23,4.68,2.95,11.11-4.35,15.94-1.64-.45-5.51.56-11.14,2.92-16.17"/><path class="cls-6" d="M1409.12,1788.15c.56,5.48,5.08,9.77,9.82,12.74,4.74,2.97,10.07,5.22,14.01,9.16,5.66,5.66,7.53,13.82,9.91,21.38,9.48,30.08,30.06,55.76,40.87,85.4.58,1.59,1.14,3.24,1.08,4.93-.11,2.81-1.91,5.35-2.07,8.15-.22,4.05,2.96,7.47,4.15,11.36,1.3,4.25.16,8.81.27,13.24.11,4.43,2.33,9.57,8.21,12.05.14,13.36-5.73,25.98-11.49,38.1-1.25,2.63-2.77,5.52-5.57,6.49-4.96,1.72-9.35-3.55-11.75-8.12-15.3-29.09-25.09-60.93-28.72-93.44-.78-7-1.29-14.08-3.35-20.83-.92-3.03-2.17-6.03-2.21-9.19-.04-2.95.98-5.81,1.36-8.73.77-5.95-1.25-12.2-5.39-16.63-1.83-1.96-4.19-3.85-4.42-6.5-.24-2.71,1.91-5.32,1.32-7.98-.23-1.03-.85-1.92-1.45-2.79-2.62-3.76-5.24-7.52-7.87-11.27-4.11-5.89-8.3-11.96-9.98-18.9-1.68-6.94-.33-15.05,3.28-18.62Z"/><path class="cls-6" d="M1481.21,2021.41c11.08,7.88,19.68,19.03,24.37,31.6,16.09,9.48,32.85,19.61,42.26,35.49.33.56.66,1.16.7,1.8.09,1.71-2.02,2.88-3.74,2.56s-3.07-1.59-4.31-2.8c-1.75,3.5.91,7.45,3.12,10.7,2.21,3.25,3.88,8.08.85,10.62-7.78-6.62-14.73-14.1-21.66-21.57-11.66-12.56-23.31-25.12-34.97-37.68-3.99-4.3-8.08-8.76-10.12-14.21-1.69-4.5-2.43-10.18-6.88-12.22,2.41-4.27,7.73-6.18,10.38-4.3Z"/><path class="cls-6" d="M1554.66,1943.96c1.35,5.57,5.23,10.51,10.39,13.23,4.19-2.97,5.52-9.66,10.61-10.59,4.27-.78,8.09,3.28,12.43,3.17,5.29-.14,8.65-6.22,13.89-7.03,2.1-.33,4.22.26,6.33.53,9.12,1.18,17.88-3.39,25.9-7.8-.92,6.66-1.68,14.03,2.24,19.55,3,4.22,8.52,7.01,9.45,12.07.37,1.99.23,4.57,2.11,5.41-4.58,4.96-11.39,7.88-18.23,7.84-5.13,5.63-5.6,13.97-4.59,21.45,1.01,7.47,3.24,14.91,2.49,22.42-.68,1.11-2.51.43-3.3-.61-.79-1.04-1.37-2.44-2.64-2.79-1.18-.32-2.38.43-3.25,1.27-4.73,4.48-6.2,12.33-12.34,14.68-2.17.83-4.67.82-6.65,2.01-2.12,1.26-3.23,3.62-4.22,5.84-2.67,5.98-5.34,11.96-8.02,17.93-6.02-2.59-12.37-4.45-18.86-5.5.98-2.57,1.96-5.13,2.94-7.7.27-.71.55-1.47.38-2.21-.24-1.05-1.26-1.71-2.14-2.37-3.82-2.9-5.84-7.9-5.06-12.56-5.93.16-11.81-3.29-14.45-8.48-.91-1.8-1.48-3.79-2.77-5.35-1.11-1.34-2.67-2.25-3.95-3.43-4.36-4-5.07-10.55-4.2-16.32.87-5.78,3.02-11.36,3.34-17.19.3-5.54-1.06-11.01-1.81-16.5s-.81-11.36,1.86-16.25c2.67-4.89,10.98-9.42,12.13-4.7Z"/><path class="cls-6" d="M1623.21,2085.53c-4.93,4.8-5.34,12.29-7.36,18.8s-8.16,13.32-14.76,11.18c-.2-8.82,7.87-15.93,9.08-24.67.49-3.51-.17-7.1.3-10.62.69-5.13,3.7-9.63,6.63-13.94,6.12-8.99,12.24-17.98,18.36-26.97,1.47-2.16,3.29-4.53,5.94-4.78,2.79-.26,5.19,2.08,6.27,4.6,1.08,2.52,1.29,5.32,2.25,7.89,2.36,6.31,8.71,10.19,14.65,13.59,2.91,1.67,6.9,3.24,9.32.94,1.5,2.69-2.36,5.11-5.37,5.98-3.01.87-6.68,3.79-4.75,6.2-2.81-1.71-4.91-4.31-6.94-6.85-5.18-6.47-10.36-12.95-15.54-19.42-.56-.7-1.24-1.47-2.15-1.53-1.12-.08-1.97.92-2.61,1.81-2.85,3.93-5.78,8.07-6.45,12.84-.67,4.77,1.72,10.33,6.48,11.63,2.59.71,5.35.06,8.03.31,2.67.25,5.66,2.06,5.45,4.68-.2,2.54-3.18,3.89-5.76,4.27-2.58.38-5.49.43-7.31,2.27-1.05,1.07-1.52,2.55-1.91,3.98-3.01,11.04-3.76,22.67-2.19,33.99-1.08.56-2.54.32-3.36-.57-.59,2.76.1,5.66-.39,8.44s-3.04,5.66-5.82,4.88c-2.38-.67-3.28-3.53-3.17-5.95.15-3.29,1.51-6.52,3.77-8.96-3.66-4.58-1.79-11.2.34-16.63,2.12-5.43,4.25-11.88-1-17.4Z"/><path class="cls-6" d="M1604.14,2198.8c-.12-2.04,1.3-3.94,3.1-4.98s3.93-1.38,6.01-1.62c2.72-.32,5.46-.5,8.2-.55.88-.02,1.78-.02,2.61.25,1.07.34,1.95,1.08,2.8,1.81,2.14,1.84,4.29,3.68,6.43,5.52.3.26.62.56.63.95.01.37-.27.69-.56.94-2.41,2.05-6.01,1.97-9.16,1.4s-6.38-1.5-9.49-.77c-1.81.43-3.44,1.4-5.2,2.01-1.76.61-3.84.83-5.39-.19-2.44-1.6-2.14-5.43,0-4.77Z"/><path class="cls-6" d="M1581.29,2162.93c-1.77.02-3.16,1.69-3.45,3.39-.3,1.71.22,3.44.74,5.09,1.02,3.29,2.44,7.01,5.74,8.21,1.79-1.76,1.25-4.68.5-7.05-.75-2.37-1.51-5.18.03-7.15.3-.39.71-.8.64-1.28-.08-.53-.67-.81-1.2-.97-1.52-.46-3.1-.71-3.01-.23Z"/><path class="cls-6" d="M1589.3,2153.15c-.47,1.22-.95,2.43-1.42,3.65,2.8,1.51,4.05,4.69,5.48,7.48,1.43,2.79,3.78,5.71,6.97,5.68,1.1-.6,1.52-2.01,1.3-3.22s-.93-2.28-1.62-3.31c-1.89-2.79-3.78-5.59-5.67-8.38-.61-.9-1.28-1.85-2.29-2.28s-2.55-.1-2.74.39Z"/><path class="cls-6" d="M1567.81,2130.62c.19,2.23.41,4.54,1.52,6.5,1.11,1.96,3.38,3.48,5.63,3.04.73-.14,1.42-.48,2.16-.55,1.86-.19,3.52,1.4,4.03,3.17.51,1.76.15,3.63-.21,5.43-6.12-1.72-12.08-3.98-17.78-6.75-.41-.2-.84-.41-1.12-.77-.36-.46-.42-1.09-.42-1.67-.03-3.38,1.23-6.76,6.19-8.39Z"/><path class="cls-6" d="M1559.3,2124.49c-.49,1.74-.98,3.47-1.47,5.21-.14.49-.28,1.02-.11,1.51.51,1.5,2.93.87,3.96-.36.99-1.19,1.6-2.86.98-4.26-.63-1.4-2.87-2-3.35-2.11Z"/><path class="cls-6" d="M1829.29,1869.71c-.44,2.24-.89,4.48-1.33,6.71"/><path class="cls-6" d="M1670.46,1829.39c6.62,5.57,7.65,15.04,8.21,23.56.21,3.12.4,6.32-.47,9.33-.86,2.94-2.69,5.54-3.56,8.48-2.06,7,1.66,14.26,5.39,20.56,3.73,6.3,7.74,13.31,6.25,20.44-2.91.43-4.39-3.22-5.13-6.01-1.44-5.41-4.08-10.52-7.69-14.86-.85-1.03-1.77-2.02-2.41-3.19-.78-1.41-1.14-3-1.49-4.57-1.42-6.39-2.84-12.78-4.26-19.17-.49-2.18-.97-4.41-.72-6.63.47-4.21,3.51-7.79,4.16-11.97.46-2.97-.32-5.98-.27-8.98s1.34-6.38,2-7Z"/><path class="cls-6" d="M1817.11,1816.24c-.72,3.49-1.43,6.97-2.15,10.46"/><path class="cls-6" d="M1667.02,1763.96c-3.62,2.61-7.39,6.14-7.11,10.52.08,1.3.53,2.55.97,3.78,1.37,3.83,2.74,7.65,4.11,11.48,1.91-1.49,2.33-4.14,2.31-6.53-.01-2.38-.29-4.88.7-7.06.39-.85.96-1.61,1.34-2.46,1.34-2.98-.06-6.87-2.32-9.73Z"/><path class="cls-6" d="M1668.22,1892.06c-1.86,4.28-.74,9.62,2.68,12.85.2.19.45.39.73.37.18-.01.35-.11.49-.22,1.69-1.25,2.19-3.59,1.78-5.62-.41-2.03-1.57-3.82-2.71-5.56-.59-.9-1.19-1.81-1.78-2.71-.34.3-.69.6-1.19.89Z"/><path class="cls-6" d="M1654.36,1917.88c.69-1.55,2.12-2.64,3.12-4.01,1-1.37,1.5-3.44.28-4.64-.75-.74-1.9-.9-2.96-1.01-3.27,5.5-9.27,9.38-15.73,10.16-.68.08-1.43.17-1.87.68-.54.64-.26,1.67.4,2.2s1.55.66,2.4.67c2.09.03,4.19-.55,5.95-1.64,1.56-.97,3.01-2.37,4.86-2.44.92-.03,1.82.29,2.75.3s1.99-.45.81-.27Z"/><path class="cls-6" d="M1678.8,1932.27c1.48-.73,2.96-1.45,4.44-2.18-.36-4.54-4.04-8.63-8.6-9.57-1.28.78-1.76,2.59-1.04,3.88.56.99,1.73,1.77,1.67,2.9-.08,1.52-2.22,2.04-2.96,3.37-.97,1.74,1.13,3.88,3.15,3.78,2.02-.1,3.67-1.57,3.33-2.18Z"/><path class="cls-6" d="M1680.95,1937.15c-2.51,3.2-4.13,7.06-4.62,11.06-.1.77-.14,1.59.21,2.29.81,1.61,3.35,1.63,4.76.48,1.41-1.15,1.97-2.99,2.46-4.72.79-2.8,1.58-5.6,2.37-8.4.13-.46.26-.96.09-1.41-.35-.94-1.74-1.03-2.66-.59s-1.66,1.22-2.61,1.29Z"/><path class="cls-6" d="M1690.19,1927.23c-2.68,2.16-2.63,6.17-1.9,9.49.95,4.32,2.64,8.86,1.11,13.01-.38,1.03-.96,2.01-1.08,3.1-.12,1.09.4,2.37,1.48,2.64,3.23-3.75,4.95-8.61,5.34-13.5.39-4.89-.49-9.81-2.02-14.48-.19-.58-.42-1.2-.93-1.55s-1.37-.27-2,1.3Z"/><path class="cls-6" d="M1679.91,1970.38c1.79-2.46,1.49-6.15-.67-8.31-.28-.28-.62-.55-1.03-.59-1.26-.12-1.48,1.7-2.22,2.7-1.25,1.7-3.97.82-5.83-.2-.78,2.01-1.42,4.08-1.92,6.18-.16.65-.29,1.35-.07,1.99.5,1.38,2.54,1.67,3.82.91s1.98-2.17,2.6-3.51c.84.13,1.11,1.2,1.01,2.03s-.37,1.74.09,2.44c.46.7,1.5.1,4.21-3.64Z"/><path class="cls-6" d="M1678.58,1978.51c2.37,5.6-1.88,11.82-1.51,17.86.19,3.03,1.53,5.86,2.84,8.6,1.32,2.75,2.64,5.5,3.96,8.25,1.6-2.03,1.42-4.84,1.59-7.4.17-2.56,1.19-5.53,3.72-6.21-.23,2.08-.45,4.15-.68,6.23-.03.26-.05.55.09.77.39.62,1.38.11,1.84-.48,2.91-3.68,3.3-8.67,3.1-13.32-.2-4.65-.86-9.39.37-13.88.62-2.27,1.73-4.54,1.41-6.87-.2-1.43-1-2.82-2.28-3.53-1.29-.71-3.06-.61-4.11.41-.95.92-1.15,2.31-1.65,3.51s-1.69,2.41-2.97,2.06c-.47-.13-.85-.45-1.3-.62-1.18-.44-2.55.25-3.25,1.27-.71,1.02-.91,2.28-1.16,3.34Z"/><path class="cls-6" d="M1690.21,2076.28c-2.11.96-4.04,2.43-5.17,4.42-1.13,1.99-1.35,4.54-.24,6.53.36.66.86,1.24,1.22,1.89,1.79,3.25-.76,7.91-4.52,8.27-.31.84.58,1.59,1.3,2.14.72.55,1.37,1.65.67,2.23-.35.29-.88.25-1.34.17-1.97-.37-3.83-1.22-5.38-2.46-.44-.35-.86-.75-1.03-1.28-.15-.46-.07-.96.04-1.43.74-3.2,3.07-5.93,3.59-9.17.33-2.03-.08-4.15.5-6.12,1.07-3.68,5.89-5.78,10.37-5.2Z"/><path class="cls-6" d="M1670.58,2141.65c.28,1.8.55,3.6.83,5.39,1.07-.87,2.8-.37,3.68.68.88,1.05,1.12,2.47,1.33,3.81.42,2.65.83,5.3,1.25,7.95-.77.69-2.01.67-2.94.2-.93-.47-1.6-1.31-2.2-2.15-3-4.21-4.83-9.21-5.23-14.32-.11-1.36.45-3.25,1.83-3.06.84.12,1.94.96,1.45,1.5Z"/><path class="cls-6" d="M1660.28,2137.01c0-1.62,0-3.28-.56-4.8-.56-1.53-1.79-2.92-3.42-3.23-.41-.08-.88-.07-1.21.19-.37.3-.43.81-.45,1.28-.15,2.9.18,5.81.96,8.61.1.34.22.72.54.88.44.23.97-.05,1.35-.36,1.11-.9,1.97-2.09,2.78-2.56Z"/><path class="cls-6" d="M1688.13,2139.96c-1.42-.08-2.57,1.32-2.67,2.7-.1,1.39.56,2.71,1.29,3.9.73,1.19,1.56,2.37,1.86,3.73.54,2.49-.82,4.95-1.16,7.47-.36,2.61.44,5.36,5.41,7.7,2.62-1.2,3.56-4.31,4.22-7.07.52-2.18,1.04-4.37,1.56-6.55.19-.81.39-1.65.28-2.47-.35-2.67-3.6-4.25-4.06-6.91-.34-1.98.85-4.49-.74-5.77-.73-.58-1.77-.6-2.7-.44-3.1.51-6.16,3.41-3.28,3.7Z"/><path class="cls-6" d="M1692.58,2167.68c-1.65-.77-3.29-1.53-4.94-2.3-.78,3.6-3.28,6.65-4.26,10.21-.98,3.56.58,8.39,4.34,8.69.24,7.61.47,15.21.71,22.82.8-1.19,2.42.62,2.53,2.04.89,11.79-6,22.95-6.33,34.77-.09,3.2-.27,7.3-2.17,7.58-.64,3.47-2.09,6.8-4.21,9.65-.25-1.02-.91-1.95-1.82-2.52-1.99,2.52-4.1,5.63-3.08,8.66.41,1.21,1.28,2.22,1.99,3.29,2.01,3.05,2.73,6.88,1.97,10.43-.48,2.21-1.5,4.28-2.06,6.47-1.4,5.51.23,11.28,1.85,16.73,15.53-27.45,24.79-57.78,33.94-87.83,1.03-3.37,1.82-7.61-.92-9.9-.86-.72-2.02-1.17-2.54-2.15-.54-1.01-.24-2.22.02-3.33,1.03-4.42,1.1-9.06.22-13.51-.14-.7-.36-1.48-1-1.83-.66-.37-1.49-.12-2.2.14-3.21,1.16-6.42,2.31-9.63,3.47-1.24-6.78-.53-13.73.19-20.58-1.74-.05-3.48-.09-5.23-.14-.23-1.46,1.8-2.68,2.63-.85Z"/><path class="cls-6" d="M1634.85,2392.82c-2.25,3.68-4.32,7.45-6.82,11.03-3.76,5.37-6.41,11.46-10.68,16.49-2.9,3.41-4.99,7.63-7.34,11.44-6.32,10.27-13.01,20.27-20.24,29.95-14.29,19.11-30.23,37-46.85,54.2-6.78,7.03-13.69,13.94-20.65,20.8-7.23,7.12-13.88,14.78-21.77,21.16l-1.9,1.96c-20.69,18.54-43.54,34.78-67.98,48.29-5.6,3.1-11.66,6.14-18.09,5.85,2.28-8.81-2.61-18.61.98-26.99,3.09-7.22,11.43-10.86,16.05-17.25,5.04-6.95,5.81-17.22,13.34-21.52,3.4-1.94,7.53-2.2,11.16-3.68,3.63-1.48,7-5.22,5.68-8.85-8.62,1.41-16.99,4.2-24.7,8.21,4.6-7.21,10.49-13.59,15.02-20.84,4.53-7.26,7.7-15.86,6.02-24.2.55-3.67-1.83-9.25-6.23-12.27-4.3-2.96-9.84-3.37-14.94-4.62-5.1-1.25-10.56-4.09-11.72-9.1-2.08,2.4-5.9,2.29-9.01,1.47-3.11-.82-6.27-2.17-9.43-1.55-2.6.51-4.76,2.3-7.29,3.07-6.01,1.83-12.07-2.34-16.8-6.39-4.74-4.05-10.35-8.54-16.54-7.44-1.96.35-3.77,1.25-5.62,1.97-7.89,3.06-17.09,2.74-24.74-.87-5.47-8.18-6.96-18.56-3.1-26.82.51-1.1,1.14-2.19,2.11-2.94.93-.72,2.11-1.06,3.23-1.44,11.3-3.76,20.72-12.54,25.11-23.38,1.31-3.23,2.19-6.63,3.78-9.75,1.43-2.81,3.4-5.32,5.28-7.86,11.24-15.23,19.56-32.51,24.4-50.67,4.1,1.74,9.35.36,11.99-3.17,4.42-5.9.98-14.49,3.61-21.33,1.3-3.39,4-6.07,6.62-8.64,6.78-6.65,13.56-13.29,20.34-19.94,1-.98,3.01-1.79,3.5-.5-1.29,1.57-2.18,3.47-2.54,5.46,2.43,1.1,4.19-2.29,6.07-4.15,4.54-4.49,12.16-.07,18.62-.23,4.23-.11,8.77-2.27,12.43-.22,1.88,1.05,3.06,3.04,4.92,4.12,2.97,1.73,6.74.76,10.18,1.11,5.46.56,9.93,4.47,15.19,6.03,3.58,1.06,9.06,1.78,12.7.68,3.47-1.04,5.76-4.15,9.46-5.35,9.78-3.17,11.63-13.73,21.15-18.15.57-.26,1.21-.51,1.8-.31,1.03.36,1.13,1.77.77,2.78-1.13,3.16-4.83,6.04-3.38,9.07,4.53-3.21,8.39-7.31,11.3-11.98-.28,1.03.83,2.02,1.93,2.07,1.09.05,2.11-.52,3.04-1.08,4.15-2.46,8.3-4.92,12.45-7.37,3.73-2.21,7.78-4.5,12.13-4.19,6.67.47,11.58,8.27,9.01,14.29-.63,1.48-1.61,2.8-2.19,4.31-1.68,4.37.31,9.19,2.27,13.45,1.96.77,4.08-1.01,4.83-2.94.75-1.93.74-4.1,1.61-5.98.88-1.89,2.57-3.29,4.2-4.63,6.1-4.99,12.21-9.98,18.31-14.97-.71,3.02,2.1,6.31,5.27,6.17,2.02-2.77,4.04-5.54,6.06-8.31,3.31,2.54-1.95,8.72,1.07,11.59.65.62,1.59.93,2.12,1.64.51.7.52,1.62.52,2.48-.04,3.97-.09,7.94-.13,11.92-.01,1.11-.01,2.28.5,3.27.56,1.07,1.63,1.78,2.4,2.72,2.01,2.43,1.68,6.1.12,8.82-1.56,2.73-4.12,4.75-6.55,6.77-8.35,6.96-16.51,16.19-15.73,26.89.12,1.68.47,3.35.45,5.03-.02,1.7-.41,3.36-.8,5.02-2.77,11.78-5.55,23.57-8.32,35.35,10.8-6.59,18.67-16.87,25.36-27.45,6.69-10.58,12.49-21.76,20.42-31.49,1.4-1.71,3.1-3.5,5.33-3.7-9.39,11.94-13.13,27.09-17.9,41.12-2.39,7.01-4.67,15.47-9.04,21.6-1.13,1.58-2.17,3.2-3.17,4.84Z"/><path class="cls-6" d="M1222.65,1641.54c8.97,11.04,12.81,25.9,10.28,39.78-.34,1.84-.85,3.78-2.28,5.01-2.64,2.27-6.74.99-9.92-.49-6.1-2.84-12.02-6.05-17.73-9.58-.81-.5-1.65-1.05-2.07-1.89-.65-1.31-.08-2.86.49-4.21,2.55-5.99,5.1-11.98,7.65-17.97,1.36-3.2,2.87-6.58,5.77-8.58,2.91-2,7.66-1.83,7.81-2.07Z"/><path class="cls-6" d="M1597.29,1739.03c-.56-1.31-1.62-2.36-2.71-3.3-2.38-2.03-5.06-3.73-7.93-5-1.36-.61-2.81-1.13-4.31-1.11-1.5.02-3.07.68-3.8,1.96-.9,1.57-.34,3.52.32,5.2,1.44,3.67,3.32,7.23,6.03,10.14,2.07,2.22,7.99,7.32,11.17,4.86,2.37-1.84,2.22-10.43,1.23-12.75Z"/></g></g><g id="hurricane"><path class="cls-4" d="M1637.17,2003.19c-.3-2.66-.61-5.33-1.75-7.71-8-16.65-11.46-34.39-23.78-49.76-4.89-6.1-13.48-21.03-24.92-22.47,41.03,5.17,55.38,54.21,70.96,92.09,15.52,37.72,21.24,75.69,3.19,115.69-19.56,43.34-61.51,70.08-99.94,81.69-19.72,5.96-40.31,3.54-59.83-1.49-77.49-19.98-126.71-88.26-152.63-173.79-21.66-71.47-36.75-176.58-2.11-249.47-10.69,22.49-25.88,40.34-33.81,64.26-5.53,16.69-9.7,33.49-12.7,50.26-.97,5.44-1.82,10.87-2.55,16.29-6.27,46.4-4,92.26,5.04,135.88,17.61,85.01,61.28,167.44,137.98,218.46,39.58,26.32,84.78,39.76,131.13,33.86,28.28-3.6,54.45-13.96,78.97-32.01,22.73-16.74,58.38-37.23,73.46-63.74,33.4-58.71,23.89-160.01,4.3-222.3-23.87-75.88-81.08-138.09-149.78-151.19-28.34-5.41-64.91,18.81-82.68,46.45-43.65,67.88-51.68,165.63,4.7,223.1,18.88,19.24,43.63,31.45,69.03,29.66,63.48-4.45,74.59-73.26,67.72-133.75Z"/><path class="cls-4" d="M1798.5,2090.9c5.22-146.35-59.97-297.78-156.67-365.26-47.09-32.86-100.56-47.79-144.89-25.31-42.95,21.78-72.44,75.57-93.62,133.47-17.06,46.63-9.85,122.27,2.01,178.29,10.38,49.01,17.72,68.98,46.11,101.94,41.24,47.88,97.24,64.01,139.13,36.32,33.92-24.23,49.41-63.3,36.74-121.63-8.15-37.53-28.34-72.97-53.72-86.45-25.38-13.48-54.68-.62-63.83,32.6-9.15,33.23,7.22,82.64,32.97,93.02-42.04-6.19-72.37-74.77-72.3-135.81.07-61.04,39.26-117.74,79.94-124.45,32.71-5.4,84.61,21.41,84.79,21.51,26.19,13.54,58.17,46.83,78.48,70.26,32.47,37.45,42.01,99.09,49.8,150.61,6.42,42.45,25.23,111.17,5.18,152.92,46.1-96.04,27.31-40.62,29.86-112.02Z"/><ellipse class="cls-3" cx="1545.67" cy="2028.86" rx="20.33" ry="28.83" transform="translate(-529.14 545.44) rotate(-17.13)"/></g><g id="snake_and_rod"><path class="cls-5" d="M766.36,1949.15c-41.85-46.2-59.28-114.73-36.65-172.31,15.45-39.31,47.84-70.91,85.58-91.26,37.75-20.36,80.63-30.21,123.52-34.54,36.38-3.67,73.03-3.52,109.6-3.37,40.49.17,80.97.33,121.46.5,6.49.03,13.17.09,19.19,2.45,5.72,2.24,10.42,6.4,14.83,10.6,21.86,20.85,40.16,45.24,53.94,71.87,9.07,17.52,14.63,42.21-1.42,54.03-7.43,5.47-17.35,6.15-26.65,6.62-25.87,1.3-52.91,2.38-76.45-8.16-14.87-6.66-27.3-17.54-41.46-25.53-32.77-18.49-72.45-20.36-110.29-19.41-34.48.87-69.85,3.94-100.86,18.67-31.01,14.74-57.1,43.39-59.48,76.98-1.38,19.48,7.26,39.4,21.72,52.73,17.29,15.92,39.92,14.35,61.99,18.53.48.09.98.19,1.4.44,1.27.75,1.37,2.49,1.33,3.94-.48,16.85.9,33.92,1.26,50.64.31,14.54.55,31.04,2.76,45.78,1.7,11.34,1.93,19.36-11.93,15.31-7.58-2.22-15.59-2.96-23.4-4.5-16.53-3.27-32.76-8.03-48.35-14.32-30.94-12.49-59.41-31.14-81.65-55.69Z"/><path class="cls-5" d="M1057.46,1976.54c1.47,28.33-.48,56.28-1.57,84.52,43.53,13.38,83.05,31.84,93.51,80.65,1.31,6.1,2.02,12.49.48,18.54-1.72,6.78-6.11,12.6-10.7,17.95-78.22,91.15-215.36,56.96-299.21,132.97-42.53,38.55-54.12,104.79-30.21,156.43,12.37,26.72,33.54,49.04,58.9,64.54,13.19,8.06,27.53,14.33,42.49,18.53,15.09,4.24,28.98,10.06,44.78,12.82,0-24.33-.02-48.66-.02-72.99,0-2.24-.05-4.64-1.39-6.46-8.77-11.93-38.42-14.04-51.13-22.74-15.59-10.67-21.09-27.08-22.83-45.73-1.57-16.8,3.37-35.12,16.8-45.73,39.65-31.3,90.71-31.21,138.97-41.11,52.51-10.77,102.74-32.01,146.7-62.03,14.49-9.9,28.44-20.86,39.41-34.41,28.01-34.6,33.25-83.67,19.38-125.64-27.32-82.66-111.65-121.05-186.27-155.65.82,8.49,1.45,16.99,1.9,25.53Z"/><path class="cls-5" d="M1052.26,2528.03c-5.57-3.13-11.59-5.84-15.81-4.58-1.85,14.09-1.04,29.04-1.44,43.29-.28,9.96-2.58,23.54,8.84,28.4,34.16,14.53,58.53,38.21,89.29,57.94,23.46,15.04,43.82,32.39,53.04,59.19,2.78,8.07,5.79,18.01,14.28,19.95,8.22,1.88,15.99-6.13,16.9-14.32s-2.93-16.09-6.73-23.45c-17.56-34.08-36.43-67.86-61.45-97.16-15.42-18.05-33.28-34.44-53.61-47.13-10.3-6.42-21.8-10.62-32.67-15.97-2.72-1.34-6.56-3.85-10.64-6.14Z"/><path class="cls-5" d="M972.61,2369.18c.81,103.68,4.38,207.76,7.3,311.59.07,2.64.18,5.39,1.5,7.69,1.83,3.19,5.55,4.74,9,6.06,9.81,3.77,19.63,7.53,29.44,11.3-2.63-1.01-.1-43.05-.1-47.79.02-15.93.09-31.86.21-47.79.25-32.55.71-65.1,1.39-97.65.68-32.55,1.57-65.09,2.67-97.62.74-21.75.27-43.18.07-64.58-4.43.06-51.31,6.43-51.36,8.6-.07,3.4-.15,6.79-.13,10.19Z"/><path class="cls-5" d="M970.12,2242.94c16.95-4.63,33.82-10.99,50.91-14.05,3.45-.62,7.16-.68,10.14-2.49,9.03-5.49,4.35-40.2,4.62-49.55.57-19.41,1.14-38.82,1.71-58.23,1.14-38.82,2.29-77.64,3.43-116.46,2.25-76.62,4.51-153.24,6.76-229.86.13-4.31-.15-9.42-3.86-11.75-2.12-1.34,5.38-4.28,2.86-4.22-18.59.4-37.16-.83-55.78-.61-14.58.17-29.09.83-43.7.99-6.89.11-.3,187.12.02,199.64,1.04,39.68,1.57,79.38,2.62,119.06.77,29.31,2.45,58.6,4.53,87.85,1.01,14.19.67,28.44,1.73,42.62.99,13.24,5.99,26.11,6.2,39.07,2.6-.61,5.19-1.28,7.79-1.99Z"/><path class="cls-5" d="M945.91,1560.21c1.36.75-.39,67.93,1.26,74.67,35.14-.01,70.29-.03,105.43-.04.04-16.97-7.66-54.73.65-69.62,3.6-6.45,15.06-7.98,20.82-13.09,6.52-5.78,10.98-14.03,14.55-21.76,14.31-30.98,21.24-66.68,11-99.16-13.9-44.1-61.08-75.67-108.26-72.97-47.18,2.7-90.05,39.02-100.02,84.12-9.97,45.11,13.43,95.15,54.57,117.85Z"/><path class="cls-3" d="M1175.89,1716.21c9.2,6.64,12.94,15.41,8.36,19.59-4.58,4.18-15.76,2.19-24.96-4.44-9.2-6.64-12.94-15.41-8.36-19.59,4.58-4.18,15.76-2.19,24.96,4.44Z"/></g></g><g id="Terramedic"><path class="cls-6" d="M1862.61,2067.31v-269.57h-55.29v-30.43h144v30.43h-55.29v269.57h-33.43Z"/><path class="cls-6" d="M2081.18,1900.17v30h-73.29v106.71h90v30.43h-123.43v-300h123.43v30.43h-90v102.43h73.29Z"/><path class="cls-6" d="M2195.6,1767.31c47.14,0,66.86,24,66.86,68.57v24.43c0,33-11.57,53.57-37.29,61.71,27.43,8.14,37.71,30.43,37.71,62.57v46.71c0,13.29.43,25.71,6,36h-33.86c-3.86-8.57-5.57-16.29-5.57-36.43v-47.14c0-33.86-15.86-44.57-43.71-44.57h-23.57v128.14h-33.43v-300h66.86ZM2187.03,1908.74c26.57,0,42.43-8.57,42.43-41.14v-28.71c0-27-9.86-41.14-34.71-41.14h-32.57v111h24.86Z"/><path class="cls-6" d="M2364.45,1767.31c47.14,0,66.86,24,66.86,68.57v24.43c0,33-11.57,53.57-37.29,61.71,27.43,8.14,37.71,30.43,37.71,62.57v46.71c0,13.29.43,25.71,6,36h-33.86c-3.86-8.57-5.57-16.29-5.57-36.43v-47.14c0-33.86-15.86-44.57-43.71-44.57h-23.57v128.14h-33.43v-300h66.86ZM2355.88,1908.74c26.57,0,42.43-8.57,42.43-41.14v-28.71c0-27-9.86-41.14-34.71-41.14h-32.57v111h24.86Z"/><path class="cls-6" d="M2500.31,2006.89l-11.57,60.43h-30.86l57.43-300h48.43l57.43,300h-33.43l-11.57-60.43h-75.86ZM2504.6,1978.17h66.86l-33.86-173.14-33,173.14Z"/><path class="cls-3" d="M1857.77,2341.67c-3.58-9.22-5.36-23.97-5.36-44.26,0-29.97,4.26-58.44,12.79-85.41,2.07-6.68,5.47-11.58,10.2-14.7,4.72-3.11,11.35-4.67,19.88-4.67,4.61,0,7.83.58,9.68,1.73,1.84,1.16,2.77,3.34,2.77,6.57,0,3.69-1.73,11.99-5.19,24.9-2.31,9.22-4.15,17.24-5.53,24.03-1.38,6.8-2.54,15.27-3.46,25.42,6.22-17.98,13.66-33.2,22.3-45.65,8.64-12.45,17.52-21.73,26.63-27.84,9.1-6.11,17.69-9.16,25.76-9.16s13.77,1.85,17.12,5.53c3.34,3.69,5.01,9.34,5.01,16.94s-2.19,20.75-6.57,40.11c-1.85,8.3-3.11,14.52-3.8,18.67,11.53-28.36,24.32-48.99,38.38-61.9,14.06-12.91,27.2-19.37,39.42-19.37,14.98,0,22.48,7.49,22.48,22.48,0,8.99-2.54,25.24-7.61,48.76-4.38,20.06-6.57,33.32-6.57,39.77,0,9.22,3.34,13.83,10.03,13.83,4.61,0,10.08-2.82,16.43-8.47,6.34-5.65,14.81-14.81,25.42-27.49,2.77-3.23,5.88-4.84,9.34-4.84,2.99,0,5.36,1.38,7.09,4.15,1.73,2.77,2.59,6.57,2.59,11.41,0,9.22-2.19,16.37-6.57,21.44-9.91,12.22-20.58,22.25-31.99,30.08-11.41,7.84-24.38,11.76-38.9,11.76-11.76,0-20.63-3.4-26.63-10.2-6-6.8-8.99-16.65-8.99-29.57,0-6.45,1.61-17.98,4.84-34.58,2.99-14.52,4.5-24.55,4.5-30.08,0-3.68-1.27-5.53-3.8-5.53-3,0-7.26,3.86-12.79,11.58-5.53,7.73-11.07,17.93-16.6,30.6-5.53,12.68-10.03,26.05-13.49,40.11-2.54,11.07-5.48,18.45-8.82,22.13-3.34,3.69-8.71,5.53-16.08,5.53s-13.31-3.63-17.12-10.89-5.71-16.08-5.71-26.45c0-8.76,1.15-21.44,3.46-38.04,1.84-14.75,2.77-24.43,2.77-29.05,0-3.68-1.27-5.53-3.8-5.53-3.46,0-7.84,4.15-13.14,12.45-5.31,8.3-10.43,18.91-15.39,31.81-4.96,12.91-8.94,25.59-11.93,38.04-2.54,10.84-5.48,18.16-8.82,21.96-3.34,3.8-8.59,5.71-15.73,5.71-8.76,0-14.93-4.61-18.5-13.83Z"/><path class="cls-3" d="M2270.3,2280.81c1.73,2.77,2.59,6.57,2.59,11.41,0,9.22-2.19,16.37-6.57,21.44-8.53,10.37-20.58,19.94-36.14,28.7-15.56,8.76-32.22,13.14-49.97,13.14-24.21,0-43-6.57-56.37-19.71-13.37-13.14-20.06-31.12-20.06-53.95,0-15.91,3.34-30.72,10.03-44.44,6.68-13.71,15.96-24.61,27.84-32.68,11.87-8.07,25.3-12.1,40.29-12.1,13.37,0,24.09,3.98,32.16,11.93,8.07,7.95,12.1,18.73,12.1,32.33,0,15.91-5.71,29.57-17.12,40.98-11.41,11.41-30.72,20.46-57.92,27.15,5.76,10.61,16.71,15.91,32.85,15.91,10.37,0,22.19-3.63,35.44-10.89,13.25-7.26,24.72-16.77,34.41-28.53,2.77-3.23,5.88-4.84,9.34-4.84,2.99,0,5.36,1.38,7.09,4.15ZM2154.46,2241.39c-5.88,9.92-8.82,21.9-8.82,35.96v.69c13.6-3.23,24.32-8.07,32.16-14.52,7.83-6.45,11.76-13.95,11.76-22.48,0-4.38-1.21-7.89-3.63-10.55-2.42-2.65-5.71-3.98-9.86-3.98-8.53,0-15.73,4.96-21.61,14.87Z"/><path class="cls-3" d="M2446.66,2280.81c1.73,2.77,2.59,6.57,2.59,11.41,0,9.22-2.19,16.37-6.57,21.44-9.46,11.53-19.83,21.39-31.12,29.57-11.3,8.19-22.48,12.28-33.54,12.28-17.52,0-30.89-10.26-40.11-30.78-9.68,12.22-18.16,20.4-25.42,24.55-7.26,4.15-15.73,6.22-25.42,6.22-14.06,0-25.65-5.24-34.75-15.73-9.11-10.49-13.66-24.15-13.66-40.98,0-18.44,3.92-35.56,11.76-51.35,7.83-15.79,18.61-28.7,32.33-38.73,13.71-10.03,29.1-15.96,46.17-17.81,4.38-44.72,12.74-82.93,25.07-114.63,12.33-31.7,28.53-47.55,48.58-47.55,9.91,0,18.16,4.5,24.73,13.49s9.86,22.6,9.86,40.8c0,25.82-6.34,56.02-19.02,90.6-12.68,34.58-29.62,70.08-50.83,106.51.92,13.37,2.94,22.94,6.05,28.7,3.11,5.76,7.09,8.64,11.93,8.64,6.22,0,12.56-2.77,19.02-8.3,6.45-5.53,15.1-14.75,25.94-27.66,2.77-3.23,5.88-4.84,9.34-4.84,2.99,0,5.36,1.38,7.09,4.15ZM2312.32,2315.22c4.38-3.57,9.91-10.2,16.6-19.88-2.31-12.45-3.46-26.39-3.46-41.84,0-5.53.23-14.52.69-26.97-12.68,3.92-23.23,12.39-31.64,25.42-8.42,13.03-12.62,27.49-12.62,43.4,0,16.83,5.76,25.24,17.29,25.24,4.38,0,8.76-1.78,13.14-5.36ZM2385.63,2085.95c-4.38,15.56-8.13,35.91-11.24,61.03-3.11,25.13-5.36,51.41-6.74,78.84,25.82-56.25,38.73-101.43,38.73-135.55,0-8.76-.75-15.56-2.25-20.4-1.5-4.84-3.29-7.26-5.36-7.26-4.38,0-8.76,7.78-13.14,23.34Z"/><path class="cls-3" d="M2431.1,2339.6c-6.8-10.6-10.2-24.67-10.2-42.19,0-10.38,1.32-23.69,3.98-39.94,2.65-16.25,6.05-31.41,10.2-45.47,2.08-7.38,4.84-12.45,8.3-15.22s8.99-4.15,16.6-4.15c11.76,0,17.64,3.92,17.64,11.76,0,5.77-2.19,19.14-6.57,40.11-5.53,25.36-8.3,42.53-8.3,51.52,0,6.92.92,12.22,2.77,15.91,1.84,3.69,4.95,5.53,9.34,5.53,4.15,0,9.34-2.88,15.56-8.64,6.22-5.76,14.52-14.87,24.9-27.32,2.77-3.23,5.88-4.84,9.34-4.84,2.99,0,5.36,1.38,7.09,4.15,1.73,2.77,2.59,6.57,2.59,11.41,0,9.22-2.19,16.37-6.57,21.44-22.82,27.9-44.15,41.84-63.97,41.84-14.99,0-25.88-5.3-32.68-15.91ZM2444.76,2163.06c-4.84-4.5-7.26-10.77-7.26-18.85s3.17-14.81,9.51-20.23c6.34-5.41,14.23-8.13,23.69-8.13,8.53,0,15.44,2.08,20.75,6.22,5.3,4.15,7.95,10.03,7.95,17.64,0,9.22-3,16.54-8.99,21.96-6,5.42-13.95,8.13-23.86,8.13s-16.94-2.25-21.79-6.74Z"/><path class="cls-3" d="M2519.28,2336.31c-12.34-12.79-18.5-29.68-18.5-50.66,0-18.67,3.69-35.04,11.07-49.1,7.38-14.06,16.94-24.9,28.7-32.51,11.76-7.61,24.09-11.41,37-11.41s22.53,3.75,29.57,11.24c7.03,7.49,10.55,17.12,10.55,28.88,0,9.68-2.13,17.87-6.4,24.55-4.27,6.69-9.86,10.03-16.77,10.03-4.38,0-7.9-1.04-10.55-3.11-2.65-2.08-3.98-4.96-3.98-8.65,0-1.61.23-3.46.69-5.53.46-2.08.8-3.57,1.04-4.5,1.15-3.46,1.73-6.68,1.73-9.68s-.75-5.3-2.25-6.92c-1.5-1.61-3.63-2.42-6.4-2.42-5.31,0-10.26,2.37-14.87,7.09-4.62,4.73-8.3,11.12-11.07,19.19-2.77,8.07-4.15,16.94-4.15,26.63,0,13.14,2.71,23.12,8.13,29.91,5.41,6.8,13.08,10.2,23,10.2,7.83,0,15.04-2.3,21.61-6.92,6.57-4.61,13.08-11.41,19.54-20.4,2.77-3.46,5.88-5.19,9.34-5.19,2.99,0,5.36,1.38,7.09,4.15s2.59,6.57,2.59,11.41c0,8.3-1.96,15.45-5.88,21.44-6.22,9.68-14.41,17.35-24.55,23-10.15,5.65-21.79,8.47-34.93,8.47-21.9,0-39.02-6.4-51.35-19.19Z"/></g><path class="cls-2" d="M289.86,877.52c-2.24-28.96,26.14-51.57,67.38-54.75,23.38-1.8,43.57,3.13,55.59,15.01l-13.41,7.72c-10.21-9.05-25.28-12.52-41.3-11.29-30.21,2.33-51.1,19.16-49.35,41.85,1.77,22.88,24.98,36.11,55.19,33.78,16.02-1.24,30.39-6.8,39.09-17.31l14.43,5.57c-10.06,13.4-29.25,21.56-52.63,23.36-41.24,3.18-72.76-14.98-75-43.95Z"/><path class="cls-2" d="M557.41,853.85l.6,60.32-17.91.18-.15-15.17c-8.33,10.08-24.6,16.35-47.52,16.58-31.35.31-50.69-10.96-50.86-27.8-.15-14.99,13.42-27.71,53.2-28.11l43.99-.44-.06-5.92c-.17-16.65-13.69-25.59-39.51-25.33-17.91.18-34.73,4.79-45.98,11.94l-8.53-9.72c13.88-8.47,34.38-13.48,56.24-13.7,35.83-.36,56.24,12.02,56.49,37.18ZM539.02,885.13l-.16-15.91-43.46.44c-26.87.27-35.49,7.76-35.39,17.75.11,11.29,13.09,18.19,35.22,17.97,21.07-.21,36.55-7.4,43.79-20.24Z"/><path class="cls-2" d="M737.48,867.55l-3.87,56.3-18.66-1.28,3.78-55.01c1.41-20.49-13.11-32.06-39.39-33.86-29.7-2.04-49.24,9.6-50.77,31.75l-3.5,50.95-18.66-1.28,6.67-97.1,17.87,1.23-1.23,17.91c10.8-11.13,29.93-16.68,53.84-15.04,33.64,2.31,55.83,17.56,53.91,45.43Z"/><path class="cls-2" d="M995.77,918.83c-5.78,28.85-38.67,42.83-77.42,35.07-22.47-4.5-39.95-15.17-48.47-30.28l-3.78,18.87-17.56-3.52,26.97-134.62,18.34,3.67-11.49,57.33c13.84-10.06,33.74-12.87,55.44-8.52,38.74,7.76,63.75,33.15,57.97,62ZM977.43,915.15c4.47-22.32-14.5-41.59-43.17-47.34-28.93-5.8-53.61,4.73-58.08,27.05-4.47,22.32,14.25,41.54,43.17,47.34,28.67,5.74,53.61-4.73,58.08-27.05Z"/><path class="cls-2" d="M1148.49,968.85l-110.83-33.94c-3.94,20.08,13.26,39.47,42.23,48.35,16.12,4.94,31.72,5.26,44.29.21l7.58,11.22c-14.87,6.28-34.88,5.96-55.79-.44-41.31-12.65-63.45-41.11-55-68.71,8.45-27.6,41.92-38.83,79.2-27.42,37.28,11.42,58.33,38.96,49.77,66.91-.33,1.06-1.01,2.4-1.44,3.82ZM1040.54,925.53l93.95,28.77c3.31-18.92-11.68-37.44-37.62-45.39-25.69-7.87-48.48-.91-56.33,16.62Z"/><path class="cls-2" d="M1174.4,974.04c11.26-26.78,46.83-33.92,84.96-17.89,21.61,9.08,37.32,22.71,42.57,38.76l-15.45.73c-4.94-12.72-16.75-22.69-31.56-28.92-27.93-11.74-54.21-6.32-63.03,14.66-8.89,21.15,5.7,43.54,33.63,55.28,14.81,6.22,30.13,7.85,42.68,2.48l10.29,11.55c-15.08,7.31-35.87,5.8-57.48-3.28-38.13-16.02-57.86-46.59-46.6-73.37Z"/><path class="cls-2" d="M1310.57,1032.03c14.1-25.19,50.34-28.44,85.74-8.63,35.4,19.82,51.34,52.28,37.25,77.46-14.1,25.19-50.2,28.73-85.6,8.92-35.4-19.81-51.48-52.57-37.38-77.76ZM1417.01,1091.6c11.12-19.86-.55-43.78-26.3-58.19-25.75-14.41-52.47-11.98-63.58,7.88-11.12,19.86.78,43.91,26.53,58.32,25.75,14.41,52.24,11.85,63.35-8.01Z"/><path class="cls-2" d="M1651.18,1261.3l-36.13,43.36-14.37-11.97,35.3-42.36c13.15-15.78,8.57-33.33-10.66-49.35-21.86-18.21-43.91-19.73-58.12-2.67l-32.69,39.24-14.37-11.97,35.3-42.36c13.15-15.78,8.57-33.33-10.86-49.52-21.65-18.04-43.91-19.73-58.12-2.67l-32.69,39.23-14.37-11.97,62.31-74.77,13.76,11.47-11.37,13.65c14.95-2.72,33.09,3.49,50.9,18.33,17.61,14.67,26.98,31.4,24.7,47.32,15.74-3.26,36.02,3.28,55.24,19.3,25.9,21.59,34.14,46.27,16.25,67.74Z"/><path class="cls-2" d="M1752.27,1408.31l-71.89-90.92c-14.66,14.28-11.53,40.01,7.26,63.78,10.46,13.23,23.11,22.37,36.32,25.35l-.14,13.54c-15.81-3.29-32.09-14.93-45.65-32.08-26.79-33.89-28.83-69.89-6.19-87.79,22.65-17.9,56.57-8.12,80.75,22.47,24.18,30.58,25.84,65.2,2.9,83.33-.87.69-2.2,1.4-3.36,2.32ZM1688.08,1311.3l60.94,77.08c13.48-13.68,11.68-37.44-5.15-58.72-16.66-21.08-39.37-28.32-55.79-18.36Z"/><path class="cls-2" d="M1868.16,1591.26l-54.55,25.75-7.65-16.2,13.72-6.48c-12.63-3.36-25.13-15.52-34.91-36.24-13.38-28.35-11.22-50.64,4.01-57.82,13.55-6.4,30.78.62,47.76,36.59l18.78,39.78,5.35-2.53c15.06-7.11,17.52-23.13,6.5-46.47-7.65-16.2-18.86-29.55-30.06-36.79l5.27-11.81c13.49,9.07,26.61,25.6,35.95,45.37,15.29,32.4,12.58,56.11-10.18,66.86ZM1832.06,1587.61l14.39-6.79-18.56-39.31c-11.47-24.3-21.88-29-30.91-24.73-10.21,4.82-11.06,19.49-1.61,39.5,9,19.06,21.99,30.11,36.69,31.33Z"/><path class="cls-2" d="M606.29,396.07v195.69h-73.77v-40.64c-18.76,28.76-55.02,45.01-105.03,45.01-76.27,0-124.42-41.89-124.42-100.03s37.51-99.41,138.79-99.41h86.28v-5c0-45.64-27.51-72.52-83.15-72.52-37.51,0-76.27,12.5-101.28,33.14l-30.64-56.89c35.64-27.51,87.53-41.26,141.3-41.26,96.28,0,151.92,45.64,151.92,141.92ZM528.14,487.35v-38.76h-80.65c-53.14,0-67.52,20.01-67.52,44.39,0,28.13,23.76,46.26,63.77,46.26s71.27-17.51,84.4-51.89Z"/><path class="cls-2" d="M1035.17,400.44v191.31h-78.15v-181.31c0-59.39-29.38-88.15-79.4-88.15-55.64,0-93.15,33.76-93.15,100.66v168.8h-78.15v-333.86h74.4v43.14c25.63-30.63,66.27-46.89,115.04-46.89,80.03,0,139.42,45.64,139.42,146.3Z"/><path class="cls-2" d="M1440.93,257.9l-156.3,360.74c-30.63,75.65-73.15,98.78-128.79,98.78-33.14,0-68.15-11.25-89.4-30.63l31.26-57.52c15,14.38,36.26,23.13,57.52,23.13,27.51,0,43.76-13.13,58.77-46.26l5.63-13.13-145.67-335.11h81.28l105.03,246.95,105.66-246.95h75.02Z"/><path class="cls-2" d="M1452.8,424.83c0-100.03,75.02-170.68,177.56-170.68s178.18,70.65,178.18,170.68-74.4,171.3-178.18,171.3-177.56-71.27-177.56-171.3ZM1729.76,424.83c0-63.77-42.51-104.41-99.41-104.41s-98.78,40.64-98.78,104.41,42.51,104.41,98.78,104.41,99.41-40.64,99.41-104.41Z"/><path class="cls-2" d="M2212.4,400.44v191.31h-78.15v-181.31c0-59.39-29.38-88.15-79.4-88.15-55.64,0-93.15,33.76-93.15,100.66v168.8h-78.15v-333.86h74.4v43.14c25.63-30.63,66.27-46.89,115.04-46.89,80.03,0,139.42,45.64,139.42,146.3Z"/><path class="cls-2" d="M2627.53,449.83h-261.96c9.38,48.77,50.02,80.03,108.16,80.03,37.51,0,66.9-11.88,90.65-36.26l41.89,48.14c-30.01,35.64-76.9,54.39-134.42,54.39-111.91,0-184.43-71.9-184.43-171.3s73.15-170.68,172.55-170.68,168.8,68.15,168.8,172.55c0,6.25-.63,15.63-1.25,23.13ZM2364.94,397.94h189.43c-6.25-48.14-43.14-81.28-94.4-81.28s-87.53,32.51-95.03,81.28Z"/></svg>