<?xml version="1.0" encoding="UTF-8"?><svg id="Layer_1" xmlns="http://www.w3.org/2000/svg" xmlns:xlink="http://www.w3.org/1999/xlink" viewBox="0 0 864.39 353.63"><defs><style>.cls-1{fill:none;}.cls-2{fill:#4783b5;}.cls-3,.cls-4{fill:#fff;}.cls-4{stroke:#231f20;stroke-miterlimit:10;}.cls-5{fill:#76c268;}.cls-6{clip-path:url(#clippath);}</style><clipPath id="clippath"><ellipse class="cls-1" cx="179.35" cy="175.91" rx="178.46" ry="175.41"/></clipPath></defs><g class="cls-6"><g id="Earth"><path id="ocean" class="cls-2" d="M348.57,241.61c-36.64,90.74-141.54,135.25-234.29,99.4C21.53,305.17-23.96,202.55,12.68,111.8,49.32,21.06,154.21-23.44,246.97,12.4c92.76,35.85,138.25,138.46,101.61,229.21Z"/><path id="Anarctica" class="cls-3" d="M59.68,307c1.24-2.13,4.33-2.25,6.8-1.82s5.25,1.09,7.33-.28c.81-.53,1.44-1.34,2.34-1.68,1.45-.55,3.03.23,4.57.43,2.94.4,5.76-1.32,8.72-1.48,3.41-.18,6.54,1.69,9.42,3.49,6.32,3.96,12.63,7.91,18.95,11.87,2.93,1.84,6.4,3.75,9.7,2.68,1.19-.39,2.26-1.15,3.5-1.36,1.29-.22,2.59.18,3.84.58,6.69,2.13,13.39,4.27,20.08,6.4,1.78.57,3.6,1.15,5.13,2.22,2.92,2.03,4.49,5.59,7.56,7.39,1.14.67,2.44,1.06,3.63,1.65,1.42.71,2.66,1.69,3.9,2.67,4.04,3.2,8.07,6.4,12.11,9.61.65.51,1.36,1.21,1.18,2-.2.86-1.29,1.15-2.19,1.26-20.49,2.6-41.48-.08-61.15-6.25-19.67-6.17-38.08-15.78-55.24-27.01-5.02-3.29-10.17-6.98-12.62-12.38.9-.16,1.8-.31,2.45,0Z"/><g id="continents"><path class="cls-5" d="M118.52,12.72c-1.35,2.35-3.01,4.54-4.93,6.48-.28.29-.58.58-.74.95-.21.5-.13,1.07-.18,1.62-.14,1.76-1.54,3.16-2.98,4.23-.43.32-.92.73-.85,1.25.06.39.42.67.61,1.02.85,1.56-1.96,3.15-1.49,4.85.37,1.34,2.42,1.49,3.15,2.69.39.63.33,1.42.48,2.14.2.9.75,1.72.78,2.64s-.92,1.95-1.75,1.5c.44,1.08.88,2.16,2.02,3.62,7.66-1.12,15.39-1.79,23.14-1.99-4.29,5.49-10.11,9.61-15.84,13.65-1.65,1.16-3.3,2.32-4.95,3.48-1.59,1.12-3.19,2.25-4.86,3.26-7.11,4.31-15.57,6.63-21.35,12.02-2.25,1.57-4.51,3.14-6.76,4.72-.82.57-1.64,1.14-2.43,1.75-3.17,2.42-5.9,5.39-8.02,8.72-.6.94-.95,2.51.13,2.87-.67,2.27-1.35,4.54-2.02,6.82-.42,1.41-.84,2.89-.49,4.31.15.6.42,1.16.53,1.77.14.81-.02,1.63-.18,2.43-.84,4.08-1.67,8.17-1.94,12.16-1.76,3.29-3.7,6.77-7.04,8.54-1.25.67-2.65,1.06-3.9,1.71-1.55.81-2.86,2-4.14,3.18-1.34,1.23-2.69,2.47-4.03,3.7-.52.48-1.05.97-1.35,1.6-.36.77-.34,1.64-.32,2.49.07,2.24.14,4.49.21,6.73.05,1.69.1,3.41-.32,5.05s-1.38,3.23-2.91,4.04c-1.14.6-2.55.77-3.43,1.7-1.12,1.2-.81,3.17-.01,4.46-2.35,6.15-4.91,12.22-7.67,18.21-1.73,3.75-3.9,7.81-7.84,9.25-2.51.92-5.9.97-6.92,3.39-.97-.97-1.95-1.96-2.63-3.14-1.35-2.33-1.41-5.13-1.17-7.21-2.85-8.43-5.72-17.08-5.39-25.95.07-1.83.28-3.66.2-5.49-.07-1.59-.35-3.16-.55-4.73-.96-7.56-.05-15.35,2.63-22.5.97-2.59,2.16-5.09,3.21-7.64.51-1.24.98-2.52,1.01-3.85.02-.84-.14-1.7.01-2.53.13-.7.49-1.34.81-1.99,1.47-2.96,2.23-6.26,2.21-9.55,0-.42.16-1,.65-.55.77-3.81,2.65-7.3,4.63-10.67,8.91-15.2,20.14-29.12,33.31-41.01,7.99-7.22,16.69-13.69,25.69-17.94,1.66-1.47,3.47-2.78,5.44-3.54,3.46-4.47,9-6.83,14.29-9,1.17-.48,2.34-.96,4.4-1.13,3.39-1.76,6.93-3.24,10.58-4.43.36-.12.78-.22,1.26-.14Z"/><path class="cls-5" d="M76.1,129.3c-2.01,1.69-3.29,4.17-3.49,6.75-.17,2.29.46,4.69-.34,6.85-1.18,3.19-5.26,5.2-5.2,8.6.02,1.04.46,2.04.51,3.09.09,1.76-.91,3.48-.65,5.23.31,2.08,2.28,3.49,4.7,4.36,2.24-.14,4.21-1.58,5.55-3.33,1.34-1.76,2.16-3.83,3.07-5.83,2.14-4.74,4.82-9.23,7.25-13.84,2.17-4.12,4.15-8.35,5.93-12.65-.18.18.1.49.35.44s.4-.3.51-.52c1.6-3.1,2.28-6.64,1.95-10.1-.08-.79-.33-1.73-1.11-1.98-.66-.21-1.37.23-1.76.79s-.58,1.23-.92,1.81c-.47.81-1.21,1.44-1.94,2.04-1.9,1.58-3.81,3.17-5.89,4.52-2.72,1.76-6.33,1.95-8.51,3.78Z"/><path class="cls-5" d="M282.92,80.71c-1.7,1.49-3.46,2.92-5.28,4.27"/><path class="cls-5" d="M218.72,38.77l1.94-.47c-.62,2.18-1.39,4.31-1.94.47Z"/><path class="cls-5" d="M343.14,102.46c-13.82-27.68-34.94-51.86-60.76-69.56C256.57,15.2,226.11,4.02,194.75.73c-16.12-1.69-31.08-.27-47.06,2.37-9.83,1.62-19.61,3.98-28.65,8.1.67.72,1.22,1.54,1.63,2.43l1.08-.43c-.55,1.17-1.1,2.34-1.65,3.51-.18.38-.36.81-.21,1.2.13.33.46.55.56.88.19.63-.52,1.13-1.06,1.52-1.2.85-2.06,2.45-1.37,3.73.19.36.5.67.55,1.07.08.67-.57,1.22-.68,1.88-.11.69.39,1.31.58,1.98.5,1.71-.94,3.31-2.04,4.73-.88,1.13-1.6,2.38-2.14,3.71-.36.88-.59,2.01.57,2.57,1.84.47,3.78-.1,5.61-.61,6.32-1.74,12.85-2.75,19.4-3.01,1.6-.06,3.25-.09,4.74-.69.8-.32,1.53-.8,2.31-1.16,2.45-1.11,5.27-.96,7.96-1.11,3.31-.19,6.59-.88,9.68-2.05.47-.18.94-.37,1.44-.42.62-.07,1.25.07,1.85-.05.8-.16,1.43-.75,2.13-1.16,1.78-1.04,4.01-.93,6-1.49,1.29-.37,2.64-1.27,2.66-2.57.02-1.35-1.38-2.27-2.64-2.84s-2.72-1.23-3.06-2.54c.51-.51.94-1.1,1.27-1.74-2.97-.13-5.97.17-8.85.88-1.54.38-3.08.88-4.67.93s-3.3-.42-4.28-1.64c1.43-.15,2.66-1.35,2.82-2.75-1.28.24-2.57.48-3.85.72.31-1.12.62-2.24.99-3.14.01-1.05.67-2.06,1.62-2.53s2.18-.37,3.05.25c.26.19.52.43,1.04.49.82-.11,1.68.49,1.83,1.29.04.22.04.44.12.64.27.63,1.22.66,1.68,1.19,0,0,.92.7,1.15.49,1.14,1.24,3.06,1.33,4.77,1.34.52,0,1.04,0,1.55,0,1.21,0,2.43,0,3.61.27.19.04.4.1.53.25.21.25.11.62-.06.89s-.41.52-.47.83.18.71,1.3.92c7.29,2.54,14.84,4.35,22.51,5.4,1.61.22,3.41.52,4.33,1.83.31.44.48.96.76,1.43.45.75,1.15,1.32,1.86,1.84,2.15,1.6,4.47,2.98,6.92,4.1-.98-.16-1.95-.31-2.93-.47-.72-.12-1.76-.01-1.81.7-.03.4.31.72.63.98.96.78,1.96,1.5,2.99,2.18,1.01.66,2.1,1.29,3.32,1.43s2.58-.35,3.11-1.42l.45.86c-.29,2.78-1.02,5.51-2.15,8.07-.23.52-.48,1.04-.6,1.6-.14.65-.1,1.33-.06,1.99.07,1.11.17,2.17.02,3.24-.33,2.4,1.55,3.8,1.38,6.26-.05.68-.22,1.35-.23,2.04-.04,1.71.86,3.29,1.26,4.96.39,1.63.28,3.32.3,4.99s.18,3.4,1.03,4.85,2.56,2.53,4.24,2.22c.94-1.83,3.47-2.01,5.41-2.79,1.65-.66,3.04-1.93,3.84-3.49.21-.42.39-.87.7-1.24.41-.48,1-.78,1.48-1.19,2.19-1.92,1.41-5.85,4.23-7.63,5.71.31,11.48-.37,16.96-2.01.79-.24,1.62-.49,2.42-.29.68.18,1.25.67,1.94.79,1.45.24,2.57-1.21,3.94-1.75,1.54-.6,3.29,0,4.71.83s2.76,1.88,4.37,2.25c1.02.24,2.1.19,3.08.56s1.83,1.4,1.62,2.49c.9,3.55,2.59,6.9,4.91,9.77.7.87,1.48,1.71,1.93,2.73.45,1.02.53,2.28-.14,3.17-.34.45-.84.79-1.11,1.28-.57,1.03.12,2.37,1.15,2.96s2.29.64,3.48.68c1.06.04,2.21.13,2.98.83.45.41.71.97.93,1.53,2.29,5.67,2.19,12.23-.29,17.82-1.01,2.29-2.36,5.07-.81,7.05.53.67,1.23,1.32,1.7,2.01.51.75.58,1.77.78,2.63.15.66.29,1.32.26,1.99-.08,1.51-.27,2.96-.29,4.51l-.04,5.29c-.01,1.29-.02,2.59.24,3.85.38,1.86,1.33,3.56,2.26,5.23.97,1.73,1.94,3.46,2.9,5.19,1.17.01,1.91-1.31,1.92-2.45s-.44-2.26-.39-3.41c.06-1.39.85-2.65,1.22-4,1.69-6.15-5.38-11.53-5.64-17.89-.04-1.12.13-2.28-.21-3.36s-1.42-2.06-2.54-1.79c1.85-3.07,3.7-6.15,5.56-9.22.08-.12.16-.26.3-.31.3-.12.58.21.74.49.75,1.36,1.5,2.71,2.25,4.07,2.23,4.05,4.47,8.1,6.7,12.14.24.43.48.87.52,1.35.06.67-.28,1.3-.5,1.94s-.31,1.41.16,1.91,1.57.22,1.48-.45l.89.4c1.35.45,2.92.21,4.07-.61.39,1.12,1.97,1.5,3.07,1s1.78-1.61,2.2-2.72c1.84-4.79.17-10.12-1.72-14.89-1.27-3.22-2.65-6.4-4.12-9.53,1.16-1.65,3.43-2.48,5.41-1.97s3.55,2.31,4.3,4.6c1.77,1.38,3.94,2.27,7.39,2.33,1.48.89,2.73,2.12,3.62,3.57.18.3.36.61.66.8,1.16.73,2.76-1.08,3.96-.41-.11-1.37.14-2.76.72-4.01"/><path class="cls-5" d="M280.97,114.76c.14,1.36,1.26,2.42,2.44,3.16s2.5,1.3,3.48,2.27c1.4,1.4,1.87,3.43,2.46,5.31,2.35,7.46,7.46,13.84,10.14,21.2.14.4.28.8.27,1.22-.03.7-.48,1.33-.51,2.02-.06,1.01.73,1.85,1.03,2.82.32,1.05.04,2.19.07,3.29.03,1.1.58,2.37,2.04,2.99.03,3.31-1.42,6.45-2.85,9.46-.31.65-.69,1.37-1.38,1.61-1.23.43-2.32-.88-2.92-2.02-3.8-7.22-6.23-15.12-7.13-23.19-.19-1.74-.32-3.49-.83-5.17-.23-.75-.54-1.5-.55-2.28,0-.73.24-1.44.34-2.17.19-1.48-.31-3.03-1.34-4.13-.45-.49-1.04-.96-1.1-1.61-.06-.67.47-1.32.33-1.98-.06-.25-.21-.48-.36-.69-.65-.93-1.3-1.87-1.95-2.8-1.02-1.46-2.06-2.97-2.48-4.69s-.08-3.73.81-4.62Z"/><path class="cls-5" d="M298.86,172.65c2.75,1.95,4.88,4.72,6.05,7.84,3.99,2.35,8.15,4.87,10.49,8.81.08.14.16.29.17.45.02.42-.5.71-.93.64s-.76-.39-1.07-.69c-.43.87.23,1.85.78,2.66s.96,2.01.21,2.64c-1.93-1.64-3.66-3.5-5.38-5.35-2.89-3.12-5.79-6.23-8.68-9.35-.99-1.07-2.01-2.17-2.51-3.53-.42-1.12-.6-2.53-1.71-3.03.6-1.06,1.92-1.53,2.58-1.07Z"/><path class="cls-5" d="M317.09,153.43c.33,1.38,1.3,2.61,2.58,3.28,1.04-.74,1.37-2.4,2.63-2.63,1.06-.19,2.01.82,3.08.79,1.31-.03,2.15-1.54,3.45-1.75.52-.08,1.05.06,1.57.13,2.26.29,4.44-.84,6.43-1.94-.23,1.65-.42,3.48.56,4.85.74,1.05,2.11,1.74,2.34,3,.09.49.06,1.13.52,1.34-1.14,1.23-2.83,1.96-4.52,1.95-1.27,1.4-1.39,3.47-1.14,5.32s.8,3.7.62,5.56c-.17.28-.62.11-.82-.15s-.34-.61-.66-.69c-.29-.08-.59.11-.81.31-1.17,1.11-1.54,3.06-3.06,3.64-.54.21-1.16.2-1.65.5-.53.31-.8.9-1.05,1.45-.66,1.48-1.33,2.97-1.99,4.45-1.49-.64-3.07-1.1-4.68-1.37.24-.64.49-1.27.73-1.91.07-.18.14-.36.09-.55-.06-.26-.31-.42-.53-.59-.95-.72-1.45-1.96-1.26-3.12-1.47.04-2.93-.82-3.59-2.1-.23-.45-.37-.94-.69-1.33-.28-.33-.66-.56-.98-.85-1.08-.99-1.26-2.62-1.04-4.05s.75-2.82.83-4.27c.08-1.37-.26-2.73-.45-4.1s-.2-2.82.46-4.03,2.73-2.34,3.01-1.17Z"/><path class="cls-5" d="M334.1,188.57c-1.22,1.19-1.33,3.05-1.83,4.67s-2.02,3.31-3.66,2.77c-.05-2.19,1.95-3.95,2.25-6.12.12-.87-.04-1.76.07-2.64.17-1.27.92-2.39,1.65-3.46,1.52-2.23,3.04-4.46,4.56-6.69.37-.54.82-1.13,1.47-1.19.69-.06,1.29.52,1.56,1.14s.32,1.32.56,1.96c.58,1.57,2.16,2.53,3.64,3.37.72.41,1.71.8,2.31.23.37.67-.59,1.27-1.33,1.48s-1.66.94-1.18,1.54c-.7-.42-1.22-1.07-1.72-1.7-1.29-1.61-2.57-3.21-3.86-4.82-.14-.17-.31-.36-.53-.38-.28-.02-.49.23-.65.45-.71.98-1.43,2-1.6,3.19-.17,1.18.43,2.56,1.61,2.89.64.18,1.33.02,1.99.08s1.4.51,1.35,1.16c-.05.63-.79.97-1.43,1.06s-1.36.11-1.81.56c-.26.26-.38.63-.47.99-.75,2.74-.93,5.63-.54,8.44-.27.14-.63.08-.83-.14-.15.69.02,1.4-.1,2.09s-.75,1.4-1.44,1.21c-.59-.17-.81-.88-.79-1.48.04-.82.37-1.62.94-2.22-.91-1.14-.44-2.78.08-4.13.53-1.35,1.06-2.95-.25-4.32Z"/><path class="cls-5" d="M329.37,216.68c-.03-.51.32-.98.77-1.23s.98-.34,1.49-.4c.68-.08,1.36-.12,2.04-.14.22,0,.44,0,.65.06.27.08.48.27.69.45.53.46,1.06.91,1.6,1.37.07.06.15.14.16.24,0,.09-.07.17-.14.23-.6.51-1.49.49-2.27.35s-1.58-.37-2.35-.19c-.45.11-.85.35-1.29.5s-.95.21-1.34-.05c-.61-.4-.53-1.35,0-1.18Z"/><path class="cls-5" d="M323.7,207.78c-.44,0-.78.42-.86.84s.06.85.18,1.26c.25.82.61,1.74,1.43,2.04.44-.44.31-1.16.12-1.75s-.37-1.28,0-1.77c.08-.1.18-.2.16-.32-.02-.13-.17-.2-.3-.24-.38-.11-.77-.18-.75-.06Z"/><path class="cls-5" d="M325.69,205.35l-.35.91c.69.37,1.01,1.16,1.36,1.86s.94,1.42,1.73,1.41c.27-.15.38-.5.32-.8s-.23-.57-.4-.82c-.47-.69-.94-1.39-1.41-2.08-.15-.22-.32-.46-.57-.57s-.63-.02-.68.1Z"/><path class="cls-5" d="M320.35,199.76c.05.55.1,1.13.38,1.61s.84.86,1.4.75c.18-.04.35-.12.54-.14.46-.05.87.35,1,.79s.04.9-.05,1.35c-1.52-.43-3-.99-4.41-1.67-.1-.05-.21-.1-.28-.19-.09-.12-.1-.27-.11-.42,0-.84.3-1.68,1.54-2.08Z"/><path class="cls-5" d="M318.24,198.24l-.36,1.29c-.03.12-.07.25-.03.38.13.37.73.22.98-.09.25-.29.4-.71.24-1.06s-.71-.5-.83-.52Z"/><path class="cls-5" d="M385.25,135l-.33,1.67"/><path class="cls-5" d="M345.83,125c1.64,1.38,1.9,3.73,2.04,5.85.05.77.1,1.57-.12,2.31-.21.73-.67,1.38-.88,2.11-.51,1.74.41,3.54,1.34,5.1s1.92,3.3,1.55,5.07c-.72.11-1.09-.8-1.27-1.49-.36-1.34-1.01-2.61-1.91-3.69-.21-.26-.44-.5-.6-.79-.19-.35-.28-.74-.37-1.13-.35-1.59-.71-3.17-1.06-4.76-.12-.54-.24-1.09-.18-1.64.12-1.04.87-1.93,1.03-2.97.11-.74-.08-1.48-.07-2.23s.33-1.58.5-1.74Z"/><path class="cls-5" d="M382.23,121.73l-.53,2.6"/><path class="cls-5" d="M344.98,108.76c-.9.65-1.83,1.52-1.77,2.61.02.32.13.63.24.94.34.95.68,1.9,1.02,2.85.47-.37.58-1.03.57-1.62s-.07-1.21.17-1.75c.1-.21.24-.4.33-.61.33-.74-.02-1.7-.58-2.41Z"/><path class="cls-5" d="M345.27,140.55c-.46,1.06-.18,2.39.67,3.19.05.05.11.1.18.09.05,0,.09-.03.12-.06.42-.31.54-.89.44-1.39s-.39-.95-.67-1.38c-.15-.22-.29-.45-.44-.67-.09.07-.17.15-.3.22Z"/><path class="cls-5" d="M341.83,146.96c.17-.38.53-.66.77-1s.37-.85.07-1.15c-.19-.18-.47-.22-.73-.25-.81,1.37-2.3,2.33-3.9,2.52-.17.02-.36.04-.46.17-.13.16-.06.42.1.55s.38.16.59.17c.52,0,1.04-.14,1.48-.41.39-.24.75-.59,1.21-.6.23,0,.45.07.68.07s.49-.11.2-.07Z"/><path class="cls-5" d="M347.9,150.53l1.1-.54c-.09-1.13-1-2.14-2.14-2.38-.32.19-.44.64-.26.96.14.25.43.44.42.72-.02.38-.55.51-.73.84-.24.43.28.96.78.94s.91-.39.83-.54Z"/><path class="cls-5" d="M348.43,151.74c-.62.79-1.02,1.75-1.15,2.75-.02.19-.04.39.05.57.2.4.83.4,1.18.12s.49-.74.61-1.17c.2-.69.39-1.39.59-2.08.03-.11.06-.24.02-.35-.09-.23-.43-.26-.66-.15s-.41.3-.65.32Z"/><path class="cls-5" d="M350.73,149.28c-.67.54-.65,1.53-.47,2.36.24,1.07.66,2.2.27,3.23-.09.26-.24.5-.27.77s.1.59.37.65c.8-.93,1.23-2.14,1.32-3.35s-.12-2.44-.5-3.59c-.05-.14-.1-.3-.23-.39s-.34-.07-.5.32Z"/><path class="cls-5" d="M348.18,159.99c.44-.61.37-1.53-.17-2.06-.07-.07-.15-.14-.26-.15-.31-.03-.37.42-.55.67-.31.42-.98.2-1.45-.05-.19.5-.35,1.01-.48,1.53-.04.16-.07.34-.02.49.12.34.63.41.95.23s.49-.54.65-.87c.21.03.28.3.25.5s-.09.43.02.61.37.03,1.05-.9Z"/><path class="cls-5" d="M347.84,162.01c.59,1.39-.47,2.93-.37,4.43.05.75.38,1.45.71,2.14.33.68.65,1.36.98,2.05.4-.5.35-1.2.4-1.84s.29-1.37.92-1.54c-.06.52-.11,1.03-.17,1.55,0,.06-.01.14.02.19.1.16.34.03.46-.12.72-.91.82-2.15.77-3.31s-.21-2.33.09-3.45c.15-.56.43-1.13.35-1.7-.05-.35-.25-.7-.57-.88s-.76-.15-1.02.1c-.23.23-.29.57-.41.87s-.42.6-.74.51c-.12-.03-.21-.11-.32-.15-.29-.11-.63.06-.81.32s-.23.57-.29.83Z"/><path class="cls-5" d="M350.73,186.27c-.52.24-1,.6-1.28,1.1s-.34,1.13-.06,1.62c.09.16.21.31.3.47.44.81-.19,1.96-1.12,2.05-.08.21.14.39.32.53s.34.41.17.55c-.09.07-.22.06-.33.04-.49-.09-.95-.3-1.34-.61-.11-.09-.21-.19-.26-.32-.04-.11-.02-.24,0-.36.18-.79.76-1.47.89-2.28.08-.5-.02-1.03.12-1.52.26-.91,1.46-1.43,2.57-1.29Z"/><path class="cls-5" d="M345.86,202.49l.21,1.34c.26-.22.7-.09.91.17s.28.61.33.94c.1.66.21,1.32.31,1.97-.19.17-.5.17-.73.05s-.4-.32-.55-.53c-.74-1.04-1.2-2.29-1.3-3.56-.03-.34.11-.81.45-.76.21.03.48.24.36.37Z"/><path class="cls-5" d="M343.3,201.34c0-.4,0-.81-.14-1.19s-.44-.72-.85-.8c-.1-.02-.22-.02-.3.05-.09.07-.11.2-.11.32-.04.72.04,1.44.24,2.14.02.08.06.18.13.22.11.06.24-.01.34-.09.28-.22.49-.52.69-.63Z"/><path class="cls-5" d="M350.22,202.08c-.35-.02-.64.33-.66.67s.14.67.32.97.39.59.46.93c.13.62-.2,1.23-.29,1.85-.09.65.11,1.33,1.34,1.91.65-.3.88-1.07,1.05-1.75.13-.54.26-1.08.39-1.63.05-.2.1-.41.07-.61-.09-.66-.89-1.06-1.01-1.71-.08-.49.21-1.11-.18-1.43-.18-.15-.44-.15-.67-.11-.77.13-1.53.85-.81.92Z"/><path class="cls-5" d="M351.32,208.96l-1.23-.57c-.19.89-.81,1.65-1.06,2.53s.14,2.08,1.08,2.16c.06,1.89.12,3.78.18,5.66.2-.29.6.15.63.51.22,2.93-1.49,5.7-1.57,8.63-.02.79-.07,1.81-.54,1.88-.16.86-.52,1.69-1.04,2.4-.06-.25-.23-.48-.45-.63-.49.63-1.02,1.4-.76,2.15.1.3.32.55.49.82.5.76.68,1.71.49,2.59-.12.55-.37,1.06-.51,1.61-.35,1.37.06,2.8.46,4.15,3.86-6.81,6.15-14.34,8.42-21.8.25-.84.45-1.89-.23-2.46-.21-.18-.5-.29-.63-.53-.13-.25-.06-.55,0-.83.25-1.1.27-2.25.06-3.35-.03-.17-.09-.37-.25-.45-.16-.09-.37-.03-.55.04-.8.29-1.59.57-2.39.86-.31-1.68-.13-3.41.05-5.11-.43-.01-.86-.02-1.3-.03-.06-.36.45-.67.65-.21Z"/><path class="cls-5" d="M336.99,264.83c-.56.91-1.07,1.85-1.69,2.74-.93,1.33-1.59,2.84-2.65,4.09-.72.85-1.24,1.89-1.82,2.84-1.57,2.55-3.23,5.03-5.02,7.43-3.55,4.74-7.5,9.18-11.63,13.45-1.68,1.74-3.4,3.46-5.12,5.16-1.79,1.77-3.44,3.67-5.4,5.25l-.47.49c-5.13,4.6-10.81,8.63-16.87,11.98-1.39.77-2.89,1.52-4.49,1.45.57-2.19-.65-4.62.24-6.7.77-1.79,2.84-2.7,3.98-4.28,1.25-1.73,1.44-4.27,3.31-5.34.84-.48,1.87-.55,2.77-.91s1.74-1.3,1.41-2.2c-2.14.35-4.22,1.04-6.13,2.04,1.14-1.79,2.6-3.37,3.73-5.17s1.91-3.94,1.49-6.01c.14-.91-.46-2.3-1.55-3.04-1.07-.73-2.44-.84-3.71-1.15s-2.62-1.02-2.91-2.26c-.52.6-1.47.57-2.24.36s-1.56-.54-2.34-.38c-.65.13-1.18.57-1.81.76-1.49.45-2.99-.58-4.17-1.59s-2.57-2.12-4.11-1.85c-.49.09-.93.31-1.39.49-1.96.76-4.24.68-6.14-.22-1.36-2.03-1.73-4.61-.77-6.66.13-.27.28-.54.52-.73.23-.18.52-.26.8-.36,2.8-.93,5.14-3.11,6.23-5.8.32-.8.54-1.65.94-2.42.36-.7.84-1.32,1.31-1.95,2.79-3.78,4.85-8.07,6.06-12.58,1.02.43,2.32.09,2.98-.79,1.1-1.46.24-3.6.9-5.29.32-.84.99-1.51,1.64-2.14,1.68-1.65,3.37-3.3,5.05-4.95.25-.24.75-.45.87-.12-.32.39-.54.86-.63,1.35.6.27,1.04-.57,1.51-1.03,1.13-1.11,3.02-.02,4.62-.06,1.05-.03,2.18-.56,3.09-.05.47.26.76.75,1.22,1.02.74.43,1.67.19,2.53.28,1.36.14,2.46,1.11,3.77,1.5.89.26,2.25.44,3.15.17s1.43-1.03,2.35-1.33c2.43-.79,2.89-3.41,5.25-4.51.14-.07.3-.13.45-.08.26.09.28.44.19.69-.28.79-1.2,1.5-.84,2.25,1.12-.8,2.08-1.81,2.8-2.97-.07.26.21.5.48.51s.52-.13.76-.27c1.03-.61,2.06-1.22,3.09-1.83.93-.55,1.93-1.12,3.01-1.04,1.65.12,2.87,2.05,2.24,3.55-.16.37-.4.7-.54,1.07-.42,1.08.08,2.28.56,3.34.49.19,1.01-.25,1.2-.73s.18-1.02.4-1.49c.22-.47.64-.82,1.04-1.15,1.51-1.24,3.03-2.48,4.54-3.72-.18.75.52,1.57,1.31,1.53.5-.69,1-1.37,1.5-2.06.82.63-.48,2.16.27,2.88.16.15.39.23.53.41.13.17.13.4.13.62-.01.99-.02,1.97-.03,2.96,0,.28,0,.57.12.81.14.27.4.44.6.68.5.6.42,1.51.03,2.19s-1.02,1.18-1.63,1.68c-2.07,1.73-4.1,4.02-3.9,6.67.03.42.12.83.11,1.25,0,.42-.1.83-.2,1.25-.69,2.92-1.38,5.85-2.07,8.77,2.68-1.64,4.63-4.19,6.29-6.81,1.66-2.63,3.1-5.4,5.07-7.81.35-.43.77-.87,1.32-.92-2.33,2.96-3.26,6.72-4.44,10.21-.59,1.74-1.16,3.84-2.24,5.36-.28.39-.54.79-.79,1.2Z"/><path class="cls-5" d="M234.69,78.38c2.23,2.74,3.18,6.43,2.55,9.87-.08.46-.21.94-.57,1.24-.66.56-1.67.25-2.46-.12-1.51-.71-2.98-1.5-4.4-2.38-.2-.12-.41-.26-.51-.47-.16-.33-.02-.71.12-1.04.63-1.49,1.27-2.97,1.9-4.46.34-.8.71-1.63,1.43-2.13s1.9-.45,1.94-.51Z"/><path class="cls-5" d="M327.67,102.57c-.14-.33-.4-.59-.67-.82-.59-.5-1.26-.92-1.97-1.24-.34-.15-.7-.28-1.07-.28s-.76.17-.94.49c-.22.39-.08.87.08,1.29.36.91.83,1.8,1.5,2.52.51.55,1.98,1.82,2.77,1.21.59-.46.55-2.59.31-3.16Z"/></g></g><g id="hurricane"><path class="cls-3" d="M337.57,168.13c-.07-.66-.15-1.32-.43-1.91-1.99-4.13-2.84-8.53-5.9-12.35-1.21-1.51-3.34-5.22-6.19-5.58,10.18,1.28,13.75,13.45,17.61,22.85,3.85,9.36,5.27,18.79.79,28.71-4.85,10.76-15.26,17.39-24.8,20.27-4.89,1.48-10,.88-14.85-.37-19.23-4.96-31.45-21.91-37.88-43.13-5.38-17.74-9.12-43.82-.52-61.91-2.65,5.58-6.42,10.01-8.39,15.95-1.37,4.14-2.41,8.31-3.15,12.47-.24,1.35-.45,2.7-.63,4.04-1.56,11.52-.99,22.9,1.25,33.72,4.37,21.1,15.21,41.56,34.24,54.22,9.82,6.53,21.04,9.87,32.55,8.4,7.02-.89,13.51-3.46,19.6-7.94,5.64-4.15,14.49-9.24,18.23-15.82,8.29-14.57,5.93-39.71,1.07-55.17-5.92-18.83-20.12-34.27-37.17-37.52-7.03-1.34-16.11,4.67-20.52,11.53-10.83,16.85-12.83,41.11,1.17,55.37,4.69,4.78,10.83,7.8,17.13,7.36,15.76-1.11,18.51-18.18,16.81-33.2Z"/><path class="cls-3" d="M377.61,189.9c1.3-36.32-14.88-73.9-38.88-90.65-11.69-8.16-24.96-11.86-35.96-6.28-10.66,5.41-17.98,18.75-23.23,33.12-4.23,11.57-2.44,30.35.5,44.25,2.58,12.16,4.4,17.12,11.45,25.3,10.24,11.88,24.13,15.89,34.53,9.01,8.42-6.01,12.26-15.71,9.12-30.19-2.02-9.32-7.03-18.11-13.33-21.46-6.3-3.35-13.57-.15-15.84,8.09-2.27,8.25,1.79,20.51,8.18,23.09-10.43-1.54-17.96-18.56-17.94-33.7.02-15.15,9.74-29.22,19.84-30.89,8.12-1.34,21,5.31,21.04,5.34,6.5,3.36,14.44,11.62,19.48,17.44,8.06,9.3,10.43,24.59,12.36,37.38,1.59,10.54,6.26,27.59,1.29,37.95,11.44-23.83,6.78-10.08,7.41-27.8Z"/><ellipse class="cls-2" cx="314.86" cy="174.5" rx="5.05" ry="7.16" transform="translate(-37.44 100.51) rotate(-17.13)"/></g><g id="snake_and_rod"><path class="cls-4" d="M121.45,154.72c-10.39-11.47-14.71-28.47-9.09-42.76,3.84-9.76,11.87-17.6,21.24-22.65,9.37-5.05,20.01-7.5,30.66-8.57,9.03-.91,18.12-.87,27.2-.84,10.05.04,20.1.08,30.14.12,1.61,0,3.27.02,4.76.61,1.42.56,2.59,1.59,3.68,2.63,5.42,5.17,9.97,11.23,13.39,17.84,2.25,4.35,3.63,10.48-.35,13.41-1.85,1.36-4.31,1.53-6.61,1.64-6.42.32-13.13.59-18.97-2.02-3.69-1.65-6.78-4.35-10.29-6.34-8.13-4.59-17.98-5.05-27.37-4.82-8.56.22-17.33.98-25.03,4.63-7.7,3.66-14.17,10.77-14.76,19.11-.34,4.83,1.8,9.78,5.39,13.09,4.29,3.95,9.91,3.56,15.39,4.6.12.02.24.05.35.11.32.19.34.62.33.98-.12,4.18.22,8.42.31,12.57.08,3.61.14,7.7.68,11.36.42,2.81.48,4.81-2.96,3.8-1.88-.55-3.87-.73-5.81-1.12-4.1-.81-8.13-1.99-12-3.55-7.68-3.1-14.75-7.73-20.26-13.82Z"/><path class="cls-4" d="M193.69,161.52c.36,7.03-.12,13.97-.39,20.98,10.8,3.32,20.61,7.9,23.21,20.02.32,1.51.5,3.1.12,4.6-.43,1.68-1.52,3.13-2.66,4.46-19.41,22.62-53.45,14.14-74.26,33-10.55,9.57-13.43,26.01-7.5,38.82,3.07,6.63,8.32,12.17,14.62,16.02,3.27,2,6.83,3.56,10.54,4.6,3.75,1.05,7.19,2.5,11.11,3.18,0-6.04,0-12.08,0-18.12,0-.56-.01-1.15-.34-1.6-2.18-2.96-9.54-3.48-12.69-5.64-3.87-2.65-5.23-6.72-5.67-11.35-.39-4.17.84-8.72,4.17-11.35,9.84-7.77,22.51-7.75,34.49-10.2,13.03-2.67,25.5-7.94,36.41-15.39,3.6-2.46,7.06-5.18,9.78-8.54,6.95-8.59,8.25-20.77,4.81-31.18-6.78-20.52-27.71-30.04-46.23-38.63.2,2.11.36,4.22.47,6.34Z"/><path class="cls-4" d="M192.4,298.39c-1.38-.78-2.88-1.45-3.92-1.14-.46,3.5-.26,7.21-.36,10.74-.07,2.47-.64,5.84,2.19,7.05,8.48,3.61,14.53,9.48,22.16,14.38,5.82,3.73,10.87,8.04,13.16,14.69.69,2,1.44,4.47,3.54,4.95,2.04.47,3.97-1.52,4.19-3.55s-.73-3.99-1.67-5.82c-4.36-8.46-9.04-16.84-15.25-24.11-3.83-4.48-8.26-8.55-13.3-11.7-2.56-1.59-5.41-2.63-8.11-3.96-.68-.33-1.63-.96-2.64-1.52Z"/><path class="cls-4" d="M172.63,258.96c.2,25.73,1.09,51.56,1.81,77.33.02.65.04,1.34.37,1.91.46.79,1.38,1.18,2.23,1.5,2.44.93,4.87,1.87,7.31,2.8-.65-.25-.03-10.68-.02-11.86,0-3.95.02-7.91.05-11.86.06-8.08.18-16.16.34-24.23s.39-16.15.66-24.23c.18-5.4.07-10.72.02-16.03-1.1.02-12.74,1.6-12.75,2.14-.02.84-.04,1.69-.03,2.53Z"/><path class="cls-4" d="M172.02,227.63c4.21-1.15,8.39-2.73,12.64-3.49.86-.15,1.78-.17,2.52-.62,2.24-1.36,1.08-9.98,1.15-12.3.14-4.82.28-9.63.43-14.45.28-9.63.57-19.27.85-28.9.56-19.02,1.12-38.03,1.68-57.05.03-1.07-.04-2.34-.96-2.92-.53-.33,1.34-1.06.71-1.05-4.61.1-9.22-.21-13.84-.15-3.62.04-7.22.21-10.85.25-1.71.03-.08,46.44,0,49.55.26,9.85.39,19.7.65,29.55.19,7.28.61,14.54,1.13,21.8.25,3.52.17,7.06.43,10.58.25,3.29,1.49,6.48,1.54,9.7.64-.15,1.29-.32,1.93-.49Z"/><path class="cls-4" d="M166.01,58.19c.34.19-.1,16.86.31,18.53,8.72,0,17.44,0,26.17-.01.01-4.21-1.9-13.58.16-17.28.89-1.6,3.74-1.98,5.17-3.25,1.62-1.43,2.73-3.48,3.61-5.4,3.55-7.69,5.27-16.55,2.73-24.61-3.45-10.95-15.16-18.78-26.87-18.11s-22.35,9.68-24.82,20.88,3.33,23.61,13.54,29.25Z"/><path class="cls-2" d="M223.09,96.91c2.28,1.65,3.21,3.82,2.07,4.86s-3.91.54-6.19-1.1-3.21-3.82-2.07-4.86,3.91-.54,6.19,1.1Z"/></g></g><g id="Terramedic"><path class="cls-5" d="M402.72,179.59V18.67h-33V.5h85.96v18.16h-33v160.93h-19.96Z"/><path class="cls-5" d="M533.19,79.81v17.91h-43.75v63.7h53.73v18.16h-73.68V.5h73.68v18.16h-53.73v61.15h43.75Z"/><path class="cls-5" d="M601.5.5c28.14,0,39.91,14.33,39.91,40.93v14.58c0,19.7-6.91,31.98-22.26,36.84,16.37,4.86,22.51,18.16,22.51,37.35v27.89c0,7.93.26,15.35,3.58,21.49h-20.21c-2.3-5.12-3.33-9.72-3.33-21.75v-28.14c0-20.21-9.47-26.61-26.1-26.61h-14.07v76.5h-19.96V.5h39.91ZM596.38,84.93c15.86,0,25.33-5.12,25.33-24.56v-17.14c0-16.12-5.88-24.56-20.72-24.56h-19.44v66.26h14.84Z"/><path class="cls-5" d="M702.3.5c28.14,0,39.91,14.33,39.91,40.93v14.58c0,19.7-6.91,31.98-22.26,36.84,16.37,4.86,22.51,18.16,22.51,37.35v27.89c0,7.93.26,15.35,3.58,21.49h-20.21c-2.3-5.12-3.33-9.72-3.33-21.75v-28.14c0-20.21-9.47-26.61-26.1-26.61h-14.07v76.5h-19.96V.5h39.91ZM697.18,84.93c15.86,0,25.33-5.12,25.33-24.56v-17.14c0-16.12-5.88-24.56-20.72-24.56h-19.44v66.26h14.84Z"/><path class="cls-5" d="M783.4,143.52l-6.91,36.07h-18.42L792.36.5h28.91l34.28,179.09h-19.96l-6.91-36.07h-45.28ZM785.96,126.38h39.91l-20.21-103.36-19.7,103.36Z"/><path class="cls-2" d="M399.83,343.37c-2.14-5.5-3.2-14.31-3.2-26.42,0-17.89,2.54-34.89,7.64-50.99,1.24-3.99,3.27-6.92,6.09-8.77,2.82-1.86,6.78-2.79,11.87-2.79,2.75,0,4.68.35,5.78,1.03,1.1.69,1.65,2,1.65,3.92,0,2.2-1.03,7.16-3.1,14.86-1.38,5.51-2.48,10.29-3.3,14.35-.83,4.06-1.52,9.12-2.06,15.17,3.72-10.73,8.15-19.82,13.32-27.25,5.16-7.43,10.46-12.97,15.89-16.62,5.44-3.65,10.56-5.47,15.38-5.47s8.22,1.1,10.22,3.3c1.99,2.2,2.99,5.57,2.99,10.12s-1.31,12.39-3.92,23.95c-1.1,4.95-1.86,8.67-2.27,11.15,6.88-16.93,14.52-29.24,22.91-36.95,8.39-7.71,16.24-11.56,23.53-11.56,8.94,0,13.42,4.47,13.42,13.42,0,5.37-1.52,15.07-4.54,29.11-2.62,11.97-3.92,19.89-3.92,23.74,0,5.51,1.99,8.26,5.99,8.26,2.75,0,6.02-1.68,9.81-5.06,3.78-3.37,8.84-8.84,15.17-16.41,1.65-1.93,3.51-2.89,5.57-2.89,1.79,0,3.2.83,4.23,2.48,1.03,1.65,1.55,3.92,1.55,6.81,0,5.51-1.31,9.77-3.92,12.8-5.92,7.3-12.28,13.28-19.09,17.96-6.81,4.68-14.55,7.02-23.22,7.02-7.02,0-12.32-2.03-15.9-6.09-3.58-4.06-5.37-9.94-5.37-17.65,0-3.85.96-10.73,2.89-20.64,1.79-8.67,2.68-14.66,2.68-17.96,0-2.2-.76-3.3-2.27-3.3-1.79,0-4.33,2.31-7.64,6.92-3.3,4.61-6.61,10.7-9.91,18.27-3.3,7.57-5.99,15.55-8.05,23.95-1.52,6.61-3.27,11.01-5.26,13.21-2,2.2-5.2,3.3-9.6,3.3s-7.95-2.17-10.22-6.5-3.41-9.6-3.41-15.79c0-5.23.69-12.8,2.06-22.71,1.1-8.81,1.65-14.59,1.65-17.34,0-2.2-.76-3.3-2.27-3.3-2.06,0-4.68,2.48-7.84,7.43-3.17,4.95-6.23,11.29-9.19,18.99-2.96,7.71-5.34,15.28-7.12,22.71-1.52,6.47-3.27,10.84-5.26,13.11-2,2.27-5.13,3.41-9.39,3.41-5.23,0-8.91-2.75-11.04-8.26Z"/><path class="cls-2" d="M646.1,307.04c1.03,1.65,1.55,3.92,1.55,6.81,0,5.51-1.31,9.77-3.92,12.8-5.09,6.19-12.28,11.91-21.57,17.13-9.29,5.23-19.23,7.84-29.83,7.84-14.45,0-25.67-3.92-33.65-11.77-7.98-7.84-11.97-18.58-11.97-32.2,0-9.5,1.99-18.34,5.99-26.53,3.99-8.19,9.53-14.69,16.62-19.51,7.09-4.82,15.1-7.22,24.05-7.22,7.98,0,14.38,2.37,19.2,7.12,4.82,4.75,7.22,11.18,7.22,19.3,0,9.5-3.41,17.65-10.22,24.46-6.81,6.81-18.34,12.22-34.58,16.2,3.44,6.33,9.98,9.5,19.61,9.5,6.19,0,13.24-2.17,21.16-6.5,7.91-4.33,14.76-10.01,20.54-17.03,1.65-1.93,3.51-2.89,5.57-2.89,1.79,0,3.2.83,4.23,2.48ZM576.94,283.51c-3.51,5.92-5.26,13.08-5.26,21.47v.41c8.12-1.93,14.52-4.82,19.2-8.67,4.68-3.85,7.02-8.33,7.02-13.42,0-2.61-.72-4.71-2.17-6.3-1.44-1.58-3.41-2.37-5.88-2.37-5.09,0-9.39,2.96-12.9,8.88Z"/><path class="cls-2" d="M751.38,307.04c1.03,1.65,1.55,3.92,1.55,6.81,0,5.51-1.31,9.77-3.92,12.8-5.64,6.88-11.84,12.77-18.58,17.65-6.74,4.89-13.42,7.33-20.02,7.33-10.46,0-18.44-6.12-23.95-18.37-5.78,7.3-10.84,12.18-15.17,14.66-4.33,2.48-9.39,3.72-15.17,3.72-8.4,0-15.31-3.13-20.75-9.39-5.44-6.26-8.15-14.41-8.15-24.46,0-11.01,2.34-21.23,7.02-30.66,4.68-9.42,11.11-17.13,19.3-23.12,8.19-5.99,17.37-9.53,27.56-10.63,2.61-26.7,7.6-49.51,14.97-68.43,7.36-18.92,17.03-28.38,29-28.38,5.92,0,10.84,2.68,14.76,8.05,3.92,5.37,5.88,13.49,5.88,24.36,0,15.41-3.79,33.44-11.35,54.08-7.57,20.64-17.69,41.84-30.35,63.58.55,7.98,1.75,13.7,3.61,17.13,1.86,3.44,4.23,5.16,7.12,5.16,3.72,0,7.5-1.65,11.35-4.95,3.85-3.3,9.01-8.81,15.48-16.51,1.65-1.93,3.51-2.89,5.57-2.89,1.79,0,3.2.83,4.23,2.48ZM671.18,327.58c2.61-2.13,5.92-6.09,9.91-11.87-1.38-7.43-2.06-15.76-2.06-24.98,0-3.3.14-8.67.41-16.1-7.57,2.34-13.87,7.4-18.89,15.17-5.03,7.78-7.53,16.41-7.53,25.91,0,10.05,3.44,15.07,10.32,15.07,2.61,0,5.23-1.06,7.84-3.2ZM714.94,190.72c-2.62,9.29-4.85,21.44-6.71,36.44-1.86,15-3.2,30.69-4.03,47.07,15.41-33.58,23.12-60.55,23.12-80.92,0-5.23-.45-9.29-1.34-12.18-.9-2.89-1.96-4.33-3.2-4.33-2.62,0-5.23,4.64-7.84,13.93Z"/><path class="cls-2" d="M742.09,342.14c-4.06-6.33-6.09-14.72-6.09-25.18,0-6.19.79-14.14,2.37-23.84,1.58-9.7,3.61-18.75,6.09-27.15,1.24-4.4,2.89-7.43,4.95-9.08,2.06-1.65,5.37-2.48,9.91-2.48,7.02,0,10.53,2.34,10.53,7.02,0,3.44-1.31,11.43-3.92,23.95-3.3,15.14-4.95,25.39-4.95,30.76,0,4.13.55,7.3,1.65,9.5,1.1,2.2,2.96,3.3,5.57,3.3,2.48,0,5.57-1.72,9.29-5.16,3.72-3.44,8.67-8.88,14.86-16.31,1.65-1.93,3.51-2.89,5.57-2.89,1.79,0,3.2.83,4.23,2.48,1.03,1.65,1.55,3.92,1.55,6.81,0,5.51-1.31,9.77-3.92,12.8-13.62,16.65-26.36,24.98-38.19,24.98-8.95,0-15.45-3.16-19.51-9.5ZM750.24,236.75c-2.89-2.68-4.33-6.43-4.33-11.25s1.89-8.84,5.68-12.08c3.78-3.23,8.5-4.85,14.14-4.85,5.09,0,9.22,1.24,12.39,3.72,3.16,2.48,4.75,5.99,4.75,10.53,0,5.51-1.79,9.88-5.37,13.11-3.58,3.23-8.33,4.85-14.24,4.85s-10.12-1.34-13-4.03Z"/><path class="cls-2" d="M794.72,340.17c-7.36-7.64-11.04-17.72-11.04-30.24,0-11.15,2.2-20.92,6.61-29.31,4.4-8.39,10.12-14.86,17.13-19.4,7.02-4.54,14.38-6.81,22.09-6.81s13.45,2.24,17.65,6.71c4.2,4.47,6.3,10.22,6.3,17.24,0,5.78-1.27,10.67-3.82,14.66-2.55,3.99-5.88,5.99-10.01,5.99-2.62,0-4.72-.62-6.3-1.86-1.58-1.24-2.37-2.96-2.37-5.16,0-.96.14-2.06.41-3.3.27-1.24.48-2.13.62-2.68.69-2.06,1.03-3.99,1.03-5.78s-.45-3.16-1.34-4.13c-.9-.96-2.17-1.45-3.82-1.45-3.17,0-6.13,1.41-8.88,4.23-2.76,2.82-4.95,6.64-6.61,11.46-1.65,4.82-2.48,10.12-2.48,15.9,0,7.84,1.62,13.8,4.85,17.86,3.23,4.06,7.81,6.09,13.73,6.09,4.68,0,8.98-1.37,12.9-4.13,3.92-2.75,7.81-6.81,11.66-12.18,1.65-2.06,3.51-3.1,5.57-3.1,1.79,0,3.2.83,4.23,2.48s1.55,3.92,1.55,6.81c0,4.95-1.17,9.22-3.51,12.8-3.72,5.78-8.6,10.36-14.66,13.73-6.06,3.37-13,5.06-20.85,5.06-13.08,0-23.29-3.82-30.66-11.46Z"/></g></svg>