<?xml version="1.0" encoding="UTF-8"?><svg id="Layer_1" xmlns="http://www.w3.org/2000/svg" xmlns:xlink="http://www.w3.org/1999/xlink" viewBox="0 0 507.36 498.67"><defs><style>.cls-1{fill:none;}.cls-2{fill:#4783b5;}.cls-3,.cls-4{fill:#fff;}.cls-4{stroke:#231f20;stroke-miterlimit:10;}.cls-5{fill:#76c268;}.cls-6{clip-path:url(#clippath);}</style><clipPath id="clippath"><ellipse class="cls-1" cx="253.68" cy="249.34" rx="253.68" ry="249.34"/></clipPath></defs><g class="cls-6"><g id="Earth"><path id="ocean" class="cls-2" d="M494.23,342.73c-52.08,128.99-201.19,192.25-333.04,141.3C29.34,433.07-35.33,287.2,16.76,158.21,68.84,29.22,217.95-34.04,349.8,16.91c131.85,50.95,196.51,196.82,144.43,325.81Z"/><path id="Anarctica" class="cls-3" d="M83.56,435.68c1.77-3.03,6.16-3.2,9.67-2.58,3.52.62,7.46,1.55,10.42-.4,1.15-.75,2.04-1.9,3.33-2.39,2.06-.79,4.31.32,6.5.62,4.18.57,8.18-1.88,12.39-2.1,4.85-.26,9.3,2.4,13.39,4.96,8.98,5.62,17.95,11.25,26.93,16.87,4.17,2.61,9.09,5.33,13.79,3.81,1.7-.55,3.21-1.63,4.97-1.93,1.83-.31,3.68.26,5.45.82,9.51,3.03,19.03,6.07,28.54,9.1,2.54.81,5.12,1.64,7.29,3.15,4.15,2.88,6.38,7.94,10.75,10.5,1.63.95,3.46,1.5,5.15,2.35,2.01,1,3.79,2.41,5.54,3.8,5.74,4.55,11.47,9.1,17.21,13.66.92.73,1.94,1.72,1.67,2.84-.28,1.22-1.83,1.63-3.11,1.8-29.12,3.7-58.96-.11-86.92-8.88-27.96-8.78-54.13-22.42-78.52-38.39-7.14-4.67-14.46-9.92-17.94-17.6,1.28-.22,2.55-.44,3.48,0Z"/><g id="continents"><path class="cls-5" d="M167.21,17.36c-1.92,3.34-4.28,6.45-7,9.21-.4.41-.82.82-1.05,1.35-.3.72-.19,1.53-.25,2.3-.2,2.5-2.19,4.5-4.23,6.02-.61.45-1.31,1.04-1.2,1.78.08.56.6.95.87,1.44,1.21,2.22-2.79,4.47-2.12,6.9.53,1.91,3.43,2.12,4.48,3.82.55.9.46,2.02.69,3.05.28,1.28,1.07,2.45,1.11,3.76s-1.31,2.77-2.49,2.14c.62,1.54,1.25,3.07,2.87,5.14,10.89-1.59,21.88-2.54,32.89-2.83-6.09,7.8-14.37,13.66-22.52,19.4-2.34,1.65-4.69,3.3-7.03,4.95-2.27,1.6-4.54,3.19-6.91,4.63-10.1,6.13-22.13,9.43-30.34,17.09-3.2,2.23-6.4,4.47-9.61,6.7-1.16.81-2.33,1.62-3.45,2.48-4.5,3.44-8.38,7.66-11.4,12.4-.85,1.34-1.35,3.57.18,4.07-.96,3.23-1.91,6.46-2.87,9.69-.59,2-1.19,4.11-.69,6.13.21.85.6,1.65.76,2.51.21,1.15-.03,2.32-.26,3.46-1.19,5.8-2.37,11.61-2.75,17.29-2.5,4.68-5.26,9.62-10,12.14-1.78.95-3.76,1.5-5.55,2.44-2.21,1.15-4.06,2.85-5.88,4.52-1.91,1.76-3.82,3.51-5.73,5.27-.74.68-1.49,1.37-1.91,2.27-.52,1.09-.49,2.34-.45,3.53.1,3.19.2,6.38.3,9.57.08,2.4.15,4.85-.45,7.18s-1.96,4.59-4.13,5.74c-1.61.86-3.63,1.1-4.87,2.42-1.6,1.7-1.15,4.51-.02,6.33-3.34,8.74-6.98,17.37-10.9,25.88-2.46,5.33-5.54,11.1-11.15,13.14-3.57,1.3-8.38,1.38-9.84,4.82-1.38-1.38-2.77-2.79-3.74-4.47-1.91-3.31-2-7.29-1.67-10.25-4.04-11.98-8.14-24.28-7.66-36.88.1-2.6.39-5.2.28-7.8-.1-2.25-.49-4.49-.78-6.72-1.37-10.75-.08-21.81,3.73-31.99,1.38-3.68,3.07-7.23,4.56-10.87.72-1.76,1.4-3.58,1.44-5.48.03-1.2-.21-2.41.02-3.59.19-1,.7-1.91,1.15-2.83,2.09-4.21,3.17-8.9,3.13-13.58,0-.59.23-1.42.92-.78,1.09-5.41,3.77-10.38,6.57-15.17,12.66-21.61,28.63-41.39,47.35-58.29,11.36-10.26,23.73-19.46,36.52-25.5,2.36-2.09,4.93-3.94,7.73-5.03,4.92-6.35,12.8-9.71,20.31-12.8,1.66-.68,3.33-1.37,6.25-1.61,4.82-2.5,9.85-4.61,15.03-6.29.51-.16,1.11-.31,1.79-.19Z"/><path class="cls-5" d="M106.91,183.08c-2.85,2.4-4.68,5.92-4.96,9.59-.25,3.26.65,6.66-.49,9.73-1.68,4.53-7.48,7.4-7.4,12.22.03,1.48.65,2.91.73,4.39.13,2.51-1.3,4.95-.93,7.43.44,2.96,3.23,4.96,6.68,6.2,3.18-.2,5.99-2.24,7.9-4.74,1.91-2.5,3.08-5.44,4.36-8.29,3.05-6.74,6.85-13.12,10.3-19.67,3.09-5.86,5.9-11.86,8.42-17.98-.25.25.15.7.5.62s.56-.42.73-.74c2.27-4.4,3.24-9.44,2.77-14.35-.11-1.13-.47-2.47-1.58-2.81-.94-.29-1.94.33-2.51,1.12s-.83,1.74-1.31,2.58c-.67,1.16-1.73,2.04-2.76,2.9-2.7,2.25-5.41,4.51-8.37,6.43-3.86,2.5-8.99,2.77-12.09,5.38Z"/><path class="cls-5" d="M400.9,114.01c-2.41,2.12-4.92,4.15-7.5,6.07"/><path class="cls-5" d="M309.64,54.4l2.76-.68c-.88,3.09-1.98,6.13-2.76.68Z"/><path class="cls-5" d="M486.51,144.93c-19.65-39.35-49.67-73.72-86.36-98.87C363.45,20.9,320.15,5.01,275.56.33c-22.91-2.4-44.18-.38-66.9,3.37-13.98,2.31-27.87,5.66-40.72,11.51.95,1.02,1.74,2.19,2.32,3.45l1.53-.61c-.78,1.66-1.56,3.33-2.34,4.99-.25.54-.51,1.15-.3,1.7.18.46.65.78.79,1.25.27.9-.74,1.61-1.51,2.16-1.7,1.2-2.93,3.49-1.95,5.3.27.51.71.96.78,1.52.12.95-.81,1.73-.96,2.67-.15.98.55,1.86.83,2.81.72,2.44-1.34,4.71-2.91,6.73-1.25,1.61-2.28,3.39-3.05,5.27-.51,1.26-.84,2.85.82,3.65,2.62.67,5.37-.14,7.98-.86,8.98-2.47,18.26-3.92,27.58-4.28,2.28-.09,4.62-.13,6.73-.98,1.14-.46,2.17-1.14,3.29-1.65,3.48-1.58,7.49-1.36,11.32-1.58,4.7-.27,9.36-1.26,13.76-2.91.67-.25,1.34-.52,2.05-.6.88-.1,1.77.1,2.64-.07,1.14-.23,2.03-1.06,3.03-1.65,2.53-1.48,5.7-1.32,8.53-2.12,1.83-.52,3.76-1.8,3.78-3.66.02-1.93-1.96-3.23-3.75-4.04s-3.86-1.74-4.35-3.61c.73-.73,1.34-1.57,1.81-2.48-4.23-.18-8.48.24-12.59,1.24-2.2.54-4.38,1.25-6.64,1.33s-4.7-.59-6.09-2.34c2.03-.22,3.78-1.93,4.01-3.9-1.83.34-3.65.68-5.48,1.02.44-1.59.89-3.19,1.41-4.47.02-1.49.95-2.93,2.31-3.59s3.1-.52,4.33.36c.37.27.74.61,1.48.7,1.17-.16,2.38.7,2.6,1.83.06.31.05.63.18.92.39.9,1.74.94,2.38,1.68,0,0,1.31.99,1.64.69,1.62,1.76,4.35,1.89,6.77,1.9.74,0,1.47,0,2.21,0,1.72,0,3.46.01,5.13.39.28.06.57.15.75.36.29.35.15.88-.09,1.27s-.58.74-.66,1.18.26,1,1.84,1.31c10.36,3.61,21.1,6.19,31.99,7.68,2.28.31,4.85.74,6.15,2.6.44.63.69,1.37,1.08,2.03.64,1.07,1.64,1.87,2.64,2.62,3.05,2.28,6.36,4.23,9.83,5.83-1.39-.22-2.78-.45-4.16-.67-1.03-.17-2.5-.02-2.57,1-.04.57.44,1.03.89,1.39,1.36,1.1,2.78,2.14,4.25,3.1,1.44.94,2.99,1.84,4.71,2.03s3.66-.49,4.42-2.01l.64,1.23c-.41,3.95-1.44,7.83-3.06,11.47-.33.74-.69,1.48-.86,2.28-.2.93-.14,1.89-.08,2.83.1,1.57.24,3.08.03,4.61-.46,3.41,2.21,5.4,1.97,8.9-.07.97-.31,1.92-.33,2.89-.06,2.43,1.23,4.68,1.79,7.05.55,2.31.4,4.72.43,7.1s.26,4.84,1.47,6.9c1.21,2.06,3.64,3.6,6.02,3.16,1.33-2.61,4.93-2.86,7.69-3.97,2.35-.94,4.32-2.74,5.45-4.96.31-.6.56-1.24.99-1.76.58-.69,1.42-1.1,2.1-1.69,3.12-2.72,2-8.32,6.01-10.85,8.12.44,16.33-.53,24.1-2.86,1.12-.33,2.31-.7,3.44-.41.97.25,1.77.96,2.76,1.12,2.07.35,3.65-1.72,5.6-2.49,2.18-.86,4.67.01,6.7,1.18s3.92,2.67,6.21,3.2c1.45.34,2.99.27,4.38.8s2.61,1.99,2.31,3.55c1.28,5.04,3.68,9.81,6.98,13.89,1,1.24,2.1,2.43,2.74,3.88.64,1.45.75,3.24-.2,4.51-.48.65-1.19,1.12-1.58,1.82-.81,1.46.17,3.37,1.64,4.21s3.25.91,4.95.97c1.5.06,3.13.19,4.23,1.18.64.58,1.01,1.38,1.33,2.18,3.26,8.06,3.11,17.38-.41,25.34-1.44,3.25-3.36,7.21-1.15,10.02.75.95,1.75,1.88,2.41,2.86.72,1.07.83,2.51,1.1,3.74.21.93.42,1.88.36,2.83-.12,2.14-.39,4.21-.41,6.41l-.06,7.52c-.01,1.83-.03,3.68.34,5.48.54,2.65,1.89,5.06,3.21,7.43,1.38,2.46,2.75,4.92,4.13,7.38,1.67.02,2.72-1.86,2.73-3.48s-.63-3.22-.55-4.85c.09-1.98,1.21-3.77,1.73-5.68,2.4-8.75-7.65-16.39-8.01-25.44-.06-1.6.18-3.24-.3-4.77s-2.02-2.93-3.61-2.54c2.63-4.37,5.27-8.74,7.9-13.11.11-.18.23-.37.42-.44.43-.17.83.3,1.05.7,1.06,1.93,2.13,3.86,3.19,5.78,3.18,5.75,6.35,11.51,9.53,17.26.33.61.68,1.24.73,1.92.08.95-.4,1.85-.71,2.75s-.44,2.01.22,2.72,2.24.31,2.1-.63l1.27.56c1.92.64,4.14.3,5.78-.86.56,1.6,2.8,2.13,4.36,1.41s2.53-2.29,3.13-3.87c2.62-6.8.24-14.39-2.45-21.17-1.81-4.57-3.77-9.09-5.86-13.55,1.65-2.35,4.87-3.52,7.69-2.8s5.05,3.28,6.12,6.54c2.52,1.96,5.6,3.23,10.51,3.31,2.1,1.26,3.88,3.02,5.15,5.08.26.42.51.87.94,1.14,1.65,1.04,3.92-1.53,5.62-.58-.16-1.94.2-3.93,1.03-5.7"/><path class="cls-5" d="M398.13,162.42c.2,1.93,1.79,3.45,3.47,4.49,1.67,1.05,3.55,1.84,4.94,3.23,2,2,2.66,4.88,3.5,7.54,3.34,10.61,10.6,19.67,14.42,30.13.2.56.4,1.14.38,1.74-.04.99-.68,1.89-.73,2.88-.08,1.43,1.04,2.64,1.46,4.01.46,1.5.06,3.11.1,4.67.04,1.56.82,3.37,2.9,4.25.05,4.71-2.02,9.17-4.05,13.44-.44.93-.98,1.95-1.97,2.29-1.75.61-3.3-1.25-4.15-2.87-5.4-10.26-8.85-21.49-10.13-32.96-.28-2.47-.46-4.97-1.18-7.35-.33-1.07-.76-2.13-.78-3.24-.01-1.04.35-2.05.48-3.08.27-2.1-.44-4.3-1.9-5.87-.65-.69-1.48-1.36-1.56-2.29-.08-.96.67-1.88.46-2.82-.08-.36-.3-.68-.51-.99-.92-1.33-1.85-2.65-2.77-3.98-1.45-2.08-2.93-4.22-3.52-6.67-.59-2.45-.12-5.31,1.16-6.57Z"/><path class="cls-5" d="M423.56,244.71c3.91,2.78,6.94,6.71,8.6,11.15,5.68,3.34,11.59,6.92,14.91,12.52.12.2.23.41.25.64.03.6-.71,1.01-1.32.9s-1.08-.56-1.52-.99c-.62,1.24.32,2.63,1.1,3.77.78,1.14,1.37,2.85.3,3.75-2.75-2.33-5.2-4.98-7.64-7.61-4.11-4.43-8.22-8.86-12.34-13.29-1.41-1.52-2.85-3.09-3.57-5.01-.59-1.59-.86-3.59-2.43-4.31.85-1.51,2.73-2.18,3.66-1.52Z"/><path class="cls-5" d="M449.47,217.39c.48,1.97,1.84,3.71,3.67,4.67,1.48-1.05,1.95-3.41,3.74-3.73,1.51-.28,2.85,1.16,4.38,1.12,1.87-.05,3.05-2.2,4.9-2.48.74-.11,1.49.09,2.23.19,3.22.42,6.31-1.19,9.14-2.75-.32,2.35-.59,4.95.79,6.9,1.06,1.49,3.01,2.47,3.33,4.26.13.7.08,1.61.75,1.91-1.62,1.75-4.02,2.78-6.43,2.77-1.81,1.99-1.98,4.93-1.62,7.57s1.14,5.26.88,7.91c-.24.39-.89.15-1.16-.21s-.48-.86-.93-.98c-.42-.11-.84.15-1.15.45-1.67,1.58-2.19,4.35-4.35,5.18-.77.29-1.65.29-2.35.71-.75.45-1.14,1.28-1.49,2.06-.94,2.11-1.89,4.22-2.83,6.33-2.12-.92-4.37-1.57-6.65-1.94.35-.91.69-1.81,1.04-2.72.1-.25.19-.52.13-.78-.08-.37-.45-.6-.75-.84-1.35-1.02-2.06-2.79-1.78-4.43-2.09.06-4.17-1.16-5.1-2.99-.32-.63-.52-1.34-.98-1.89-.39-.47-.94-.79-1.4-1.21-1.54-1.41-1.79-3.72-1.48-5.76.31-2.04,1.07-4.01,1.18-6.06.11-1.95-.38-3.88-.64-5.82s-.29-4.01.66-5.73,3.87-3.32,4.28-1.66Z"/><path class="cls-5" d="M473.66,267.33c-1.74,1.69-1.89,4.34-2.6,6.63s-2.88,4.7-5.21,3.94c-.07-3.11,2.78-5.62,3.2-8.7.17-1.24-.06-2.51.11-3.75.24-1.81,1.31-3.4,2.34-4.92,2.16-3.17,4.32-6.34,6.48-9.52.52-.76,1.16-1.6,2.09-1.69.98-.09,1.83.73,2.21,1.62s.46,1.88.79,2.78c.83,2.23,3.07,3.6,5.17,4.79,1.03.59,2.44,1.14,3.29.33.53.95-.83,1.8-1.9,2.11s-2.36,1.34-1.68,2.19c-.99-.6-1.73-1.52-2.45-2.42-1.83-2.28-3.66-4.57-5.48-6.85-.2-.25-.44-.52-.76-.54-.39-.03-.69.32-.92.64-1,1.39-2.04,2.85-2.28,4.53-.24,1.68.61,3.65,2.29,4.1.91.25,1.89.02,2.83.11s2,.73,1.92,1.65c-.07.9-1.12,1.37-2.03,1.5-.91.13-1.94.15-2.58.8-.37.38-.53.9-.67,1.4-1.06,3.9-1.33,8-.77,11.99-.38.2-.89.11-1.18-.2-.21.97.03,2-.14,2.98s-1.07,2-2.05,1.72c-.84-.23-1.16-1.25-1.12-2.1.05-1.16.53-2.3,1.33-3.16-1.29-1.62-.63-3.95.12-5.87.75-1.92,1.5-4.19-.35-6.14Z"/><path class="cls-5" d="M466.93,307.29c-.04-.72.46-1.39,1.09-1.76s1.39-.49,2.12-.57c.96-.11,1.93-.18,2.89-.2.31,0,.63,0,.92.09.38.12.69.38.99.64.76.65,1.51,1.3,2.27,1.95.11.09.22.2.22.34,0,.13-.1.24-.2.33-.85.72-2.12.7-3.23.5s-2.25-.53-3.35-.27c-.64.15-1.21.49-1.83.71s-1.35.29-1.9-.07c-.86-.57-.76-1.92,0-1.68Z"/><path class="cls-5" d="M458.87,294.63c-.63,0-1.11.59-1.22,1.2s.08,1.21.26,1.8c.36,1.16.86,2.47,2.03,2.89.63-.62.44-1.65.18-2.49s-.53-1.83.01-2.52c.11-.14.25-.28.23-.45-.03-.19-.24-.29-.42-.34-.53-.16-1.09-.25-1.06-.08Z"/><path class="cls-5" d="M461.69,291.19l-.5,1.29c.99.53,1.43,1.66,1.93,2.64s1.33,2.01,2.46,2c.39-.21.54-.71.46-1.14s-.33-.8-.57-1.17c-.67-.99-1.33-1.97-2-2.96-.22-.32-.45-.65-.81-.8s-.9-.03-.97.14Z"/><path class="cls-5" d="M454.11,283.24c.07.79.14,1.6.54,2.29s1.19,1.23,1.99,1.07c.26-.05.5-.17.76-.2.66-.07,1.24.5,1.42,1.12s.05,1.28-.07,1.92c-2.16-.61-4.26-1.4-6.27-2.38-.15-.07-.29-.15-.39-.27-.13-.16-.15-.38-.15-.59,0-1.19.43-2.39,2.18-2.96Z"/><path class="cls-5" d="M451.11,281.07l-.52,1.84c-.05.17-.1.36-.04.53.18.53,1.03.31,1.4-.13.35-.42.57-1.01.34-1.5s-1.01-.71-1.18-.74Z"/><path class="cls-5" d="M490.33,176.96c2.34,1.96,2.7,5.31,2.9,8.31.07,1.1.14,2.23-.17,3.29-.3,1.04-.95,1.96-1.26,2.99-.73,2.47.59,5.03,1.9,7.25s2.73,4.69,2.21,7.21c-1.03.15-1.55-1.14-1.81-2.12-.51-1.91-1.44-3.71-2.71-5.24-.3-.36-.62-.71-.85-1.12-.28-.5-.4-1.06-.53-1.61-.5-2.25-1-4.51-1.5-6.76-.17-.77-.34-1.56-.26-2.34.17-1.48,1.24-2.75,1.47-4.22.16-1.05-.11-2.11-.1-3.17s.47-2.25.71-2.47Z"/><path class="cls-5" d="M489.11,153.88c-1.28.92-2.61,2.17-2.51,3.71.03.46.19.9.34,1.33.48,1.35.97,2.7,1.45,4.05.67-.53.82-1.46.82-2.3s-.1-1.72.25-2.49c.14-.3.34-.57.47-.87.47-1.05-.02-2.42-.82-3.43Z"/><path class="cls-5" d="M489.53,199.08c-.65,1.51-.26,3.39.95,4.53.07.07.16.14.26.13.06,0,.12-.04.17-.08.59-.44.77-1.27.63-1.98s-.56-1.35-.96-1.96c-.21-.32-.42-.64-.63-.96-.12.11-.24.21-.42.31Z"/><path class="cls-5" d="M484.65,208.18c.24-.55.75-.93,1.1-1.42s.53-1.21.1-1.64c-.26-.26-.67-.32-1.04-.36-1.15,1.94-3.27,3.31-5.55,3.58-.24.03-.51.06-.66.24-.19.23-.09.59.14.78s.55.23.85.24c.74,0,1.48-.19,2.1-.58.55-.34,1.06-.84,1.71-.86.33-.01.64.1.97.11s.7-.16.28-.09Z"/><path class="cls-5" d="M493.27,213.26l1.57-.77c-.13-1.6-1.43-3.05-3.03-3.38-.45.28-.62.91-.37,1.37.2.35.61.62.59,1.02-.03.54-.78.72-1.04,1.19-.34.61.4,1.37,1.11,1.33s1.29-.56,1.17-.77Z"/><path class="cls-5" d="M494.03,214.98c-.89,1.13-1.46,2.49-1.63,3.9-.03.27-.05.56.07.81.29.57,1.18.58,1.68.17s.69-1.06.87-1.67c.28-.99.56-1.98.84-2.96.05-.16.09-.34.03-.5-.12-.33-.61-.36-.94-.21s-.59.43-.92.46Z"/><path class="cls-5" d="M497.29,211.48c-.95.76-.93,2.18-.67,3.35.33,1.52.93,3.12.39,4.59-.13.36-.34.71-.38,1.09s.14.83.52.93c1.14-1.32,1.75-3.04,1.88-4.76.14-1.72-.17-3.46-.71-5.11-.07-.2-.15-.42-.33-.55s-.49-.1-.7.46Z"/><path class="cls-5" d="M493.66,226.71c.63-.87.52-2.17-.24-2.93-.1-.1-.22-.2-.36-.21-.44-.04-.52.6-.78.95-.44.6-1.4.29-2.06-.07-.28.71-.5,1.44-.68,2.18-.05.23-.1.48-.02.7.18.49.89.59,1.35.32s.7-.77.92-1.24c.3.05.39.42.36.72s-.13.61.03.86.53.04,1.49-1.28Z"/><path class="cls-5" d="M493.19,229.57c.84,1.98-.66,4.17-.53,6.3.07,1.07.54,2.07,1,3.04.47.97.93,1.94,1.4,2.91.56-.72.5-1.71.56-2.61s.42-1.95,1.31-2.19c-.08.73-.16,1.46-.24,2.2-.01.09-.02.19.03.27.14.22.49.04.65-.17,1.03-1.3,1.16-3.06,1.09-4.7-.07-1.64-.3-3.31.13-4.9.22-.8.61-1.6.5-2.42-.07-.5-.35-.99-.81-1.25s-1.08-.21-1.45.14c-.33.32-.41.81-.58,1.24s-.6.85-1.05.73c-.16-.05-.3-.16-.46-.22-.42-.16-.9.09-1.15.45s-.32.81-.41,1.18Z"/><path class="cls-5" d="M497.29,264.06c-.74.34-1.43.86-1.82,1.56s-.48,1.6-.09,2.31c.13.23.3.44.43.67.63,1.15-.27,2.79-1.59,2.92-.11.3.21.56.46.75s.48.58.24.79c-.13.1-.31.09-.47.06-.69-.13-1.35-.43-1.9-.87-.15-.12-.3-.27-.36-.45-.05-.16-.03-.34.01-.5.26-1.13,1.08-2.09,1.27-3.24.11-.72-.03-1.46.17-2.16.38-1.3,2.08-2.04,3.66-1.83Z"/><path class="cls-5" d="M490.37,287.13c.1.63.19,1.27.29,1.9.38-.31.99-.13,1.3.24s.39.87.47,1.34c.15.93.29,1.87.44,2.8-.27.24-.71.24-1.04.07s-.56-.46-.78-.76c-1.06-1.49-1.7-3.25-1.85-5.05-.04-.48.16-1.15.64-1.08.3.04.68.34.51.53Z"/><path class="cls-5" d="M486.73,285.49c0-.57,0-1.16-.2-1.7s-.63-1.03-1.21-1.14c-.15-.03-.31-.03-.43.07-.13.1-.15.29-.16.45-.05,1.02.06,2.05.34,3.04.03.12.08.25.19.31.15.08.34-.02.48-.13.39-.32.69-.74.98-.9Z"/><path class="cls-5" d="M496.56,286.53c-.5-.03-.91.46-.94.95s.2.96.46,1.38.55.84.66,1.31c.19.88-.29,1.75-.41,2.64-.13.92.16,1.89,1.91,2.72.92-.42,1.26-1.52,1.49-2.49.18-.77.37-1.54.55-2.31.07-.29.14-.58.1-.87-.12-.94-1.27-1.5-1.43-2.44-.12-.7.3-1.58-.26-2.03-.26-.21-.63-.21-.95-.16-1.09.18-2.17,1.2-1.16,1.3Z"/><path class="cls-5" d="M498.13,296.31c-.58-.27-1.16-.54-1.74-.81-.28,1.27-1.16,2.35-1.5,3.6-.35,1.25.2,2.96,1.53,3.07.08,2.68.17,5.37.25,8.05.28-.42.85.22.89.72.31,4.16-2.12,8.1-2.23,12.26-.03,1.13-.1,2.58-.77,2.68-.23,1.22-.74,2.4-1.48,3.4-.09-.36-.32-.69-.64-.89-.7.89-1.45,1.99-1.09,3.05.14.43.45.78.7,1.16.71,1.08.96,2.43.69,3.68-.17.78-.53,1.51-.73,2.28-.49,1.94.08,3.98.65,5.9,5.48-9.68,8.75-20.38,11.97-30.99.36-1.19.64-2.69-.32-3.49-.3-.25-.71-.41-.9-.76-.19-.35-.08-.78,0-1.17.36-1.56.39-3.2.08-4.77-.05-.25-.13-.52-.35-.65-.23-.13-.53-.04-.78.05-1.13.41-2.26.82-3.4,1.22-.44-2.39-.19-4.85.07-7.26-.61-.02-1.23-.03-1.84-.05-.08-.51.63-.95.93-.3Z"/><path class="cls-5" d="M477.76,375.74c-.79,1.3-1.52,2.63-2.41,3.89-1.33,1.89-2.26,4.04-3.77,5.82-1.02,1.2-1.76,2.69-2.59,4.04-2.23,3.62-4.59,7.15-7.14,10.57-5.04,6.74-10.67,13.05-16.53,19.12-2.39,2.48-4.83,4.92-7.28,7.34-2.55,2.51-4.9,5.21-7.68,7.47l-.67.69c-7.3,6.54-15.36,12.27-23.98,17.03-1.98,1.09-4.11,2.17-6.38,2.06.8-3.11-.92-6.56.34-9.52,1.09-2.55,4.03-3.83,5.66-6.09,1.78-2.45,2.05-6.07,4.71-7.59,1.2-.69,2.66-.77,3.94-1.3,1.28-.52,2.47-1.84,2-3.12-3.04.5-6,1.48-8.71,2.9,1.62-2.55,3.7-4.79,5.3-7.35s2.72-5.6,2.12-8.54c.19-1.29-.65-3.26-2.2-4.33-1.52-1.04-3.47-1.19-5.27-1.63s-3.73-1.44-4.13-3.21c-.73.85-2.08.81-3.18.52s-2.21-.77-3.33-.55c-.92.18-1.68.81-2.57,1.08-2.12.65-4.26-.83-5.93-2.25-1.67-1.43-3.65-3.01-5.84-2.62-.69.12-1.33.44-1.98.7-2.78,1.08-6.03.96-8.73-.31-1.93-2.88-2.45-6.55-1.09-9.46.18-.39.4-.77.74-1.04.33-.25.74-.38,1.14-.51,3.98-1.33,7.31-4.42,8.86-8.25.46-1.14.77-2.34,1.33-3.44.5-.99,1.2-1.88,1.86-2.77,3.96-5.37,6.9-11.47,8.61-17.88,1.45.62,3.3.13,4.23-1.12,1.56-2.08.35-5.11,1.27-7.52.46-1.2,1.41-2.14,2.34-3.05,2.39-2.34,4.78-4.69,7.18-7.03.35-.35,1.06-.63,1.23-.18-.46.56-.77,1.22-.9,1.92.86.39,1.48-.81,2.14-1.46,1.6-1.58,4.29-.02,6.57-.08,1.49-.04,3.09-.8,4.39-.08.66.37,1.08,1.07,1.73,1.45,1.05.61,2.38.27,3.59.39,1.93.2,3.5,1.58,5.36,2.13,1.26.37,3.2.63,4.48.24s2.03-1.46,3.34-1.89c3.45-1.12,4.1-4.84,7.46-6.4.2-.09.43-.18.64-.11.36.13.4.63.27.98-.4,1.12-1.71,2.13-1.19,3.2,1.6-1.13,2.96-2.58,3.99-4.23-.1.37.29.71.68.73s.74-.18,1.07-.38c1.46-.87,2.93-1.73,4.39-2.6,1.32-.78,2.74-1.59,4.28-1.48,2.35.17,4.09,2.92,3.18,5.04-.22.52-.57.99-.77,1.52-.59,1.54.11,3.24.8,4.74.69.27,1.44-.36,1.71-1.04s.26-1.45.57-2.11c.31-.67.91-1.16,1.48-1.63,2.15-1.76,4.31-3.52,6.46-5.28-.25,1.07.74,2.23,1.86,2.18.71-.98,1.42-1.95,2.14-2.93,1.17.9-.69,3.08.38,4.09.23.22.56.33.75.58.18.25.19.57.18.88-.02,1.4-.03,2.8-.05,4.2,0,.39,0,.8.18,1.15.2.38.58.63.85.96.71.86.59,2.15.04,3.11s-1.45,1.67-2.31,2.39c-2.95,2.46-5.82,5.71-5.55,9.49.04.59.17,1.18.16,1.77,0,.6-.15,1.19-.28,1.77-.98,4.16-1.96,8.31-2.94,12.47,3.81-2.33,6.59-5.95,8.95-9.68,2.36-3.73,4.4-7.68,7.2-11.11.49-.6,1.09-1.24,1.88-1.31-3.31,4.21-4.63,9.56-6.32,14.51-.84,2.47-1.65,5.46-3.19,7.62-.4.56-.76,1.13-1.12,1.71Z"/><path class="cls-5" d="M332.34,110.7c3.16,3.89,4.52,9.14,3.63,14.03-.12.65-.3,1.33-.81,1.77-.93.8-2.38.35-3.5-.17-2.15-1-4.24-2.13-6.25-3.38-.29-.18-.58-.37-.73-.67-.23-.46-.03-1.01.17-1.48.9-2.11,1.8-4.23,2.7-6.34.48-1.13,1.01-2.32,2.04-3.03s2.7-.64,2.75-.73Z"/><path class="cls-5" d="M464.51,145.09c-.2-.46-.57-.83-.96-1.16-.84-.72-1.78-1.31-2.8-1.77-.48-.21-.99-.4-1.52-.39s-1.08.24-1.34.69c-.32.55-.12,1.24.11,1.83.51,1.3,1.17,2.55,2.13,3.58.73.78,2.82,2.58,3.94,1.72.84-.65.78-3.68.43-4.5Z"/></g></g><g id="hurricane"><path class="cls-3" d="M478.58,238.28c-.11-.94-.21-1.88-.62-2.72-2.82-5.87-4.04-12.13-8.39-17.56-1.73-2.15-4.75-7.42-8.79-7.93,14.48,1.83,19.54,19.12,25.04,32.49s7.49,26.7,1.13,40.81c-6.9,15.29-21.7,24.72-35.26,28.82-6.96,2.1-14.22,1.25-21.11-.53-27.34-7.05-44.7-31.14-53.85-61.31-7.64-25.21-12.97-62.3-.74-88.01-3.77,7.93-9.13,14.23-11.93,22.67-1.95,5.89-3.42,11.82-4.48,17.73-.34,1.92-.64,3.83-.9,5.75-2.21,16.37-1.41,32.55,1.78,47.94,6.21,29.99,21.62,59.07,48.68,77.07,13.96,9.29,29.91,14.03,46.26,11.94,9.98-1.27,19.21-4.92,27.86-11.29,8.02-5.9,20.6-13.14,25.92-22.49,11.78-20.71,8.43-56.45,1.52-78.43-8.42-26.77-28.61-48.72-52.84-53.34-10-1.91-22.9,6.64-29.17,16.39-15.4,23.95-18.23,58.43,1.66,78.71,6.66,6.79,15.39,11.09,24.35,10.46,22.4-1.57,26.32-25.85,23.89-47.19Z"/><path class="cls-3" d="M535.5,269.22c1.84-51.63-21.16-105.05-55.27-128.86-16.61-11.59-35.48-16.86-51.12-8.93-15.15,7.69-25.56,26.66-33.03,47.09-6.02,16.45-3.48,43.14.71,62.9,3.66,17.29,6.25,24.34,16.27,35.96,14.55,16.89,34.31,22.58,49.08,12.81,11.97-8.55,17.43-22.33,12.96-42.91-2.88-13.24-10-25.74-18.95-30.5-8.95-4.76-19.29-.22-22.52,11.5-3.23,11.72,2.55,29.16,11.63,32.82-14.83-2.18-25.53-26.38-25.51-47.91.03-21.53,13.85-41.54,28.2-43.91,11.54-1.9,29.85,7.55,29.91,7.59,9.24,4.78,20.52,16.52,27.69,24.79,11.45,13.21,14.82,34.96,17.57,53.14,2.26,14.98,8.9,39.22,1.83,53.95,16.26-33.88,9.64-14.33,10.54-39.52Z"/><ellipse class="cls-2" cx="446.3" cy="247.34" rx="7.17" ry="10.17" transform="translate(-53.06 142.47) rotate(-17.13)"/></g><g id="snake_and_rod"><path class="cls-4" d="M171.37,219.22c-14.76-16.3-20.91-40.48-12.93-60.79,5.45-13.87,16.88-25.02,30.19-32.2s28.45-10.66,43.58-12.18c12.83-1.29,25.76-1.24,38.66-1.19,14.28.06,28.57.12,42.85.18,2.29,0,4.65.03,6.77.86,2.02.79,3.67,2.26,5.23,3.74,7.71,7.36,14.17,15.96,19.03,25.35,3.2,6.18,5.16,14.89-.5,19.06-2.62,1.93-6.12,2.17-9.4,2.33-9.13.46-18.66.84-26.97-2.88-5.25-2.35-9.63-6.19-14.63-9.01-11.56-6.52-25.56-7.18-38.91-6.85-12.16.31-24.64,1.39-35.58,6.59-10.94,5.2-20.14,15.31-20.98,27.16-.49,6.87,2.56,13.9,7.66,18.6,6.1,5.62,14.08,5.06,21.87,6.54.17.03.34.07.49.15.45.27.48.88.47,1.39-.17,5.94.32,11.97.44,17.86.11,5.13.19,10.95.97,16.15.6,4,.68,6.83-4.21,5.4-2.67-.78-5.5-1.04-8.26-1.59-5.83-1.15-11.56-2.83-17.06-5.05-10.91-4.4-20.96-10.98-28.81-19.65Z"/><path class="cls-4" d="M274.07,228.88c.52,10-.17,19.86-.55,29.82,15.36,4.72,29.3,11.23,32.99,28.45.46,2.15.71,4.41.17,6.54-.61,2.39-2.15,4.44-3.78,6.33-27.59,32.16-75.98,20.09-105.56,46.91-15,13.6-19.09,36.97-10.66,55.19,4.36,9.43,11.83,17.3,20.78,22.77,4.65,2.84,9.71,5.06,14.99,6.54,5.32,1.49,10.23,3.55,15.8,4.52,0-8.58,0-17.17,0-25.75,0-.79-.02-1.64-.49-2.28-3.09-4.21-13.55-4.95-18.04-8.02-5.5-3.76-7.44-9.55-8.05-16.13-.55-5.93,1.19-12.39,5.93-16.13,13.99-11.04,32-11.01,49.03-14.5,18.52-3.8,36.24-11.29,51.76-21.88,5.11-3.49,10.03-7.36,13.9-12.14,9.88-12.21,11.73-29.52,6.84-44.33-9.64-29.16-39.39-42.7-65.71-54.91.29,2.99.51,5.99.67,9.01Z"/><path class="cls-4" d="M272.23,423.44c-1.97-1.1-4.09-2.06-5.58-1.61-.65,4.97-.37,10.24-.51,15.27-.1,3.51-.91,8.31,3.12,10.02,12.05,5.13,20.65,13.48,31.5,20.44,8.27,5.31,15.46,11.43,18.71,20.88.98,2.85,2.04,6.35,5.04,7.04,2.9.66,5.64-2.16,5.96-5.05s-1.04-5.68-2.37-8.27c-6.19-12.02-12.85-23.94-21.68-34.28-5.44-6.37-11.74-12.15-18.91-16.63-3.63-2.27-7.69-3.75-11.52-5.64-.96-.47-2.32-1.36-3.75-2.17Z"/><path class="cls-4" d="M244.13,367.4c.29,36.58,1.55,73.29,2.57,109.92.03.93.06,1.9.53,2.71.65,1.13,1.96,1.67,3.18,2.14,3.46,1.33,6.92,2.66,10.39,3.99-.93-.36-.04-15.19-.03-16.86,0-5.62.03-11.24.07-16.86.09-11.48.25-22.97.49-34.45s.55-22.96.94-34.44c.26-7.67.09-15.23.03-22.78-1.56.02-18.1,2.27-18.12,3.04-.02,1.2-.05,2.4-.04,3.6Z"/><path class="cls-4" d="M243.25,322.86c5.98-1.63,11.93-3.88,17.96-4.96,1.22-.22,2.53-.24,3.58-.88,3.19-1.94,1.53-14.18,1.63-17.48.2-6.85.4-13.7.6-20.54.4-13.7.81-27.39,1.21-41.09.8-27.03,1.59-54.06,2.39-81.09.04-1.52-.05-3.32-1.36-4.15-.75-.47,1.9-1.51,1.01-1.49-6.56.14-13.11-.29-19.68-.22-5.14.06-10.26.29-15.42.35-2.43.04-.11,66.01,0,70.43.37,14,.55,28,.92,42,.27,10.34.86,20.67,1.6,30.99.36,5.01.24,10.03.61,15.04.35,4.67,2.11,9.21,2.19,13.78.92-.22,1.83-.45,2.75-.7Z"/><path class="cls-4" d="M234.71,82c.48.27-.14,23.96.44,26.34,12.4,0,24.8-.01,37.2-.02.02-5.99-2.7-19.31.23-24.56,1.27-2.27,5.31-2.82,7.35-4.62,2.3-2.04,3.87-4.95,5.13-7.68,5.05-10.93,7.49-23.52,3.88-34.98-4.9-15.56-21.55-26.69-38.19-25.74s-31.77,13.76-35.29,29.68c-3.52,15.91,4.74,33.57,19.25,41.58Z"/><path class="cls-2" d="M315.85,137.04c3.25,2.34,4.57,5.43,2.95,6.91s-5.56.77-8.8-1.57-4.57-5.43-2.95-6.91c1.62-1.48,5.56-.77,8.8,1.57Z"/></g></g></svg>